<svg width="290" height="290" viewBox="0 0 290 290" fill="none" xmlns="http://www.w3.org/2000/svg">
<path fill-rule="evenodd" clip-rule="evenodd" d="M146 0.000846719C145.833 0.00028239 145.667 0 145.5 0C65.6949 0 1 64.6949 1 144.5C1 224.305 65.6949 289 145.5 289C225.138 289 289.73 224.575 289.999 145H146V0.000846719Z" fill="#00BBFF"/>
<path fill-rule="evenodd" clip-rule="evenodd" d="M146 51.9268V35.3441L4.39126 176.765C5.36871 181.196 6.54959 185.551 7.9236 189.82L146 51.9268ZM8.27135 190.886C9.39378 194.281 10.6387 197.621 12.001 200.9L146 67.0791V53.3401L8.27135 190.886ZM146 2.19578V18.7785L2.29242 162.295L3 163.002L146 20.1918V33.9308L4.13994 175.602C2.1819 166.362 1.10695 156.796 1.00758 146.995L146 2.19578ZM129.761 1.84723C122.84 2.59697 116.065 3.83552 109.471 5.52764L5.57549 109.285C2.58877 120.859 1 132.994 1 145.5L1.00003 145.59L145.782 1.00027L145.5 1C140.722 1 135.998 1.23191 131.339 1.68508L3 129.853L2.29242 129.147L129.761 1.84723ZM83.4219 14.9768C53.5488 29.2101 29.3317 53.397 15.0598 83.2481L83.4219 14.9768ZM6.08605 107.362C8.10888 99.9505 10.7069 92.7762 13.8293 85.8902L86.0656 13.7499C92.9554 10.6369 100.133 8.04854 107.547 6.03562L6.08605 107.362ZM253.96 143H237.355L98.1179 282.052C102.305 283.505 106.579 284.771 110.931 285.839L253.96 143ZM112.071 286.114C115.855 287.01 119.697 287.757 123.59 288.35L269.133 143H255.375L112.071 286.114ZM204.163 143H220.768L86.2539 277.335C82.4838 275.638 78.7997 273.784 75.2097 271.782L204.163 143ZM97.0709 281.685C93.7332 280.498 90.452 279.191 87.2324 277.771L222.183 143H235.94L97.0709 281.685ZM187.575 143H170.971L55.3666 258.45C58.4557 260.919 61.6483 263.263 64.9368 265.475L187.575 143ZM65.7849 266.042C68.5591 267.88 71.4005 269.625 74.3045 271.273L202.748 143H188.99L65.7849 266.042ZM146 143H154.383L46.4901 250.749C43.6409 248.068 40.9005 245.272 38.2764 242.369L146 134.789V143ZM54.5829 257.82C52.0572 255.773 49.6019 253.642 47.2212 251.433L155.798 143H169.555L54.5829 257.82ZM146 118.223V101.641L23.8936 223.585C26.0454 226.929 28.3314 230.179 30.744 233.326L146 118.223ZM31.3601 234.124C33.359 236.695 35.4428 239.196 37.6074 241.624L146 133.376V119.637L31.3601 234.124ZM146 68.4924V85.0751L17.7721 213.133C15.8326 209.477 14.0454 205.729 12.419 201.896L146 68.4924ZM23.3426 222.722C21.5534 219.897 19.8593 217.006 18.2651 214.054L146 86.4884V100.227L23.3426 222.722ZM145.5 290C144.138 290 142.781 289.981 141.428 289.944L288.568 143H289.979C289.993 143.832 290 144.665 290 145.5C290 148.916 289.882 152.303 289.648 155.66L155.468 289.662C152.175 289.886 148.851 290 145.5 290ZM124.822 288.532C129.823 289.248 134.906 289.709 140.058 289.899L287.153 143H270.548L124.822 288.532ZM178.311 286.259C185.166 284.667 191.834 282.588 198.276 280.059L279.989 198.455C282.526 192.016 284.615 185.35 286.215 178.498L178.311 286.259ZM176.483 286.671C170.133 288.058 163.628 289.027 156.996 289.549L289.534 157.187C289.004 163.818 288.025 170.323 286.629 176.671L176.483 286.671ZM200.648 279.104C236.042 264.478 264.358 236.196 279.03 200.826L200.648 279.104Z" fill="white"/>
<mask id="path-3-inside-1" fill="white">
<path fill-rule="evenodd" clip-rule="evenodd" d="M145 1.00085C144.833 1.00028 144.667 1 144.5 1C64.6949 1 0 65.6949 0 145.5C0 225.305 64.6949 290 144.5 290C224.305 290 289 225.305 289 145.5C289 144.665 288.993 143.832 288.979 143H145V1.00085Z"/>
</mask>
<path d="M145 1.00085H148V-1.98901L145.01 -1.99914L145 1.00085ZM288.979 143L291.978 142.949L291.928 140H288.979V143ZM145 143H142V146H145V143ZM144.5 4C144.663 4 144.827 4.00028 144.99 4.00083L145.01 -1.99914C144.84 -1.99971 144.67 -2 144.5 -2V4ZM3 145.5C3 67.3517 66.3517 4 144.5 4V-2C63.038 -2 -3 64.038 -3 145.5H3ZM144.5 287C66.3517 287 3 223.648 3 145.5H-3C-3 226.962 63.038 293 144.5 293V287ZM286 145.5C286 223.648 222.648 287 144.5 287V293C225.962 293 292 226.962 292 145.5H286ZM285.979 143.051C285.993 143.866 286 144.682 286 145.5H292C292 144.648 291.993 143.798 291.978 142.949L285.979 143.051ZM288.979 140H145V146H288.979V140ZM148 143V1.00085H142V143H148Z" fill="#434343" mask="url(#path-3-inside-1)"/>
</svg>
