<svg width="290" height="290" viewBox="0 0 290 290" fill="none" xmlns="http://www.w3.org/2000/svg">
<path fill-rule="evenodd" clip-rule="evenodd" d="M145 0C64.9187 0 0 64.9187 0 145C0 225.081 64.9187 290 145 290C225.081 290 290 225.081 290 145C290 87.4332 256.453 37.7016 207.842 14.2883L145 145V0Z" fill="#00BBFF"/>
<path fill-rule="evenodd" clip-rule="evenodd" d="M118.636 2.39085C124.147 1.37859 129.767 0.677898 135.477 0.307715L0.320305 135.285C0.697993 129.576 1.40613 123.957 2.42577 118.447L118.636 2.39085ZM0 145C0 142.245 0.0768527 139.507 0.228532 136.79L136.982 0.21792C139.636 0.0732689 142.31 0 145 0V7.79753L0.186493 152.419C0.0626618 149.961 0 147.488 0 145ZM92.9624 9.61748C81.551 14.0065 70.8349 19.7968 61.0249 26.7776L26.8901 60.8671C19.8958 70.6684 14.0911 81.3771 9.68688 92.7823L92.9624 9.61748ZM8.83405 95.0473C6.27212 102.029 4.23179 109.262 2.76029 116.7L116.889 2.72304C109.449 4.18465 102.213 6.21527 95.2285 8.76771L8.83405 95.0473ZM227.809 25.9565C230.693 27.9662 233.5 30.078 236.225 32.2866L164.984 103.433L178.611 75.0894L227.809 25.9565ZM145 108.656V123.391L32.1653 236.076C29.9603 233.347 27.8522 230.537 25.8464 227.651L145 108.656ZM145 124.804L32.7998 236.855C35.1362 239.706 37.5792 242.466 40.1225 245.129L145 140.391V124.804ZM237.004 32.9221L163.677 106.152L149.263 136.134L245.268 40.2558C242.608 37.7089 239.852 35.2623 237.004 32.9221ZM216.508 18.8296C213.677 17.222 210.787 15.7068 207.842 14.2883L195.639 39.6704L216.508 18.8296ZM145 90.2423V75.5074L13.7087 206.624C15.2645 209.933 16.9417 213.174 18.7345 216.34L145 90.2423ZM19.2484 217.24L145 91.6556V107.242L25.2692 226.814C23.1423 223.708 21.1333 220.514 19.2484 217.24ZM194.332 42.3889L217.407 19.3447C220.679 21.2339 223.869 23.2472 226.973 25.3782L179.918 72.3709L194.332 42.3889ZM145 42.359V57.0941L8.33672 193.576C7.02707 189.891 5.8622 186.138 4.84893 182.324L145 42.359ZM13.2595 205.66C11.5973 202.056 10.0786 198.372 8.71079 194.615L145 58.5074V74.0941L13.2595 205.66ZM145 23.9457V9.21081L0.260156 153.758C0.528273 158.259 1.00165 162.704 1.67105 167.084L145 23.9457ZM1.86305 168.306C2.56871 172.673 3.46945 176.975 4.55605 181.203L145 40.9457V25.359L1.86305 168.306ZM261.479 58.6276C263.585 61.4619 265.589 64.3757 267.487 67.3636L67.201 267.383C64.2156 265.481 61.3044 263.473 58.4729 261.364L261.479 58.6276ZM77.9819 273.616C74.5964 271.849 71.2895 269.951 68.0676 267.931L268.033 68.231C270.049 71.4555 271.942 74.765 273.706 78.1528L77.9819 273.616ZM253.206 48.4764C250.891 45.8821 248.483 43.3716 245.988 40.95L147.956 138.852L145 145V141.804L40.8158 245.85C43.2341 248.348 45.7414 250.759 48.3326 253.078L253.206 48.4764ZM49.0814 253.743C51.8505 256.188 54.7137 258.528 57.6648 260.758L260.874 57.8187C258.648 54.8646 256.312 51.9983 253.871 49.226L49.0814 253.743ZM55.3682 31.0135C46.3698 38.0991 38.2309 46.2273 31.1336 55.2159L55.3682 31.0135ZM88.9792 278.782C85.5554 277.347 82.1983 275.784 78.914 274.099L274.187 79.0856C275.867 82.3722 277.426 85.7313 278.856 89.1571L88.9792 278.782ZM89.979 279.197C93.7221 280.733 97.5436 282.117 101.436 283.342L283.399 101.62C282.18 97.726 280.801 93.9026 279.27 90.1575L89.979 279.197ZM102.516 283.677C106.351 284.85 110.254 285.869 114.217 286.726L286.767 114.406C285.915 110.441 284.901 106.537 283.733 102.7L102.516 283.677ZM128.852 289.111C124.296 288.606 119.803 287.89 115.385 286.973L287.012 115.574C287.923 119.994 288.633 124.487 289.132 129.044L128.852 289.111ZM144.134 289.997C139.409 289.97 134.738 289.716 130.131 289.247L289.266 130.323C289.73 134.93 289.977 139.602 289.998 144.326L144.134 289.997ZM145.547 289.999C151.166 289.978 156.709 289.638 162.16 288.995L288.973 162.351C289.622 156.901 289.97 151.358 289.998 145.74L145.547 289.999ZM163.775 288.796C170.026 287.988 176.151 286.781 182.126 285.203L285.154 182.313C286.74 176.34 287.954 170.215 288.771 163.966L163.775 288.796ZM209.432 274.934C201.375 278.937 192.892 282.213 184.07 284.675L284.624 184.256C282.149 193.074 278.862 201.553 274.848 209.605L209.432 274.934ZM212.33 273.453C238.329 259.797 259.674 238.48 273.363 212.501L212.33 273.453Z" fill="white"/>
<mask id="path-3-inside-1" fill="white">
<path fill-rule="evenodd" clip-rule="evenodd" d="M145 0C64.9187 0 0 64.9187 0 145C0 225.081 64.9187 290 145 290C225.081 290 290 225.081 290 145C290 87.4332 256.453 37.7016 207.842 14.2883L145 145V0Z"/>
</mask>
<path d="M145 0H148V-3H145V0ZM207.842 14.2883L209.144 11.5855L206.439 10.2827L205.138 12.9884L207.842 14.2883ZM145 145H142L147.704 146.3L145 145ZM3 145C3 66.5756 66.5756 3 145 3V-3C63.2619 -3 -3 63.2619 -3 145H3ZM145 287C66.5756 287 3 223.424 3 145H-3C-3 226.738 63.2619 293 145 293V287ZM287 145C287 223.424 223.424 287 145 287V293C226.738 293 293 226.738 293 145H287ZM206.54 16.9911C254.153 39.9234 287 88.6287 287 145H293C293 86.2376 258.754 35.4798 209.144 11.5855L206.54 16.9911ZM205.138 12.9884L142.296 143.7L147.704 146.3L210.546 15.5882L205.138 12.9884ZM148 145V0H142V145H148Z" fill="#434343" mask="url(#path-3-inside-1)"/>
</svg>
