<svg width="34" height="34" viewBox="0 0 34 34" fill="none" xmlns="http://www.w3.org/2000/svg">
<path d="M0 17.0002C0 26.3739 7.62606 34 16.9998 34C26.3735 34 34 26.3739 34 17.0002C34 7.62648 26.3739 0 16.9998 0C7.62564 0 0 7.62648 0 17.0002ZM6.87367 29.5713V29.5709C6.87367 24.0278 11.3834 19.5181 16.9265 19.5181C22.4696 19.5181 26.9792 24.0278 26.9792 29.5709C26.9792 29.6065 26.9911 29.6378 26.9996 29.6709C24.2469 31.848 20.774 33.1522 16.9998 33.1522C13.1683 33.1522 9.64586 31.8085 6.87367 29.5713ZM16.9998 0.847764C25.906 0.847764 33.1518 8.0936 33.1518 16.9998C33.1518 21.7519 31.0884 26.0302 27.8109 28.9884C27.5545 24.1388 24.1138 20.1213 19.546 18.9899C21.988 17.9633 23.7077 15.5471 23.7077 12.7364C23.7077 8.99732 20.6655 5.95512 16.9265 5.95512C13.1874 5.95512 10.1456 8.99774 10.1456 12.7368C10.1456 15.5476 11.8649 17.9637 14.3069 18.9903C9.77938 20.1119 6.36077 24.0697 6.05176 28.8621C2.85485 25.9089 0.847764 21.6854 0.847764 17.0002C0.847764 8.09403 8.0936 0.847764 16.9998 0.847764ZM16.9265 18.6699C13.6549 18.6699 10.993 16.0083 10.993 12.7364C10.993 9.46444 13.6545 6.80288 16.9265 6.80288C20.1984 6.80288 22.86 9.46444 22.86 12.7364C22.86 16.0083 20.1984 18.6699 16.9265 18.6699Z" fill="#434343"/>
</svg>
