<svg width="51" height="51" viewBox="0 0 51 51" fill="none" xmlns="http://www.w3.org/2000/svg">
<path d="M27.9822 21.4926C27.8307 21.4925 27.6825 21.5286 27.5564 21.5965C27.4304 21.6643 27.3321 21.7609 27.2741 21.8739C27.2161 21.9869 27.2009 22.1112 27.2305 22.2312C27.2601 22.3512 27.3332 25.6069 27.4405 25.6933L34.3159 25.6933L15.8008 25.6933C15.6059 25.7034 15.423 25.773 15.2894 25.888C15.1558 26.003 15.0815 26.1547 15.0815 26.3124C15.0815 26.47 15.1558 26.6218 15.2894 26.7368C15.423 26.8517 15.6059 26.9214 15.8008 26.9314L34.2844 26.9314L27.5564 26.5552C27.4127 26.6711 27.2161 30.3274 27.2161 30.4915C27.2161 30.6555 27.2968 30.8128 27.4405 30.9287C27.5841 31.0447 27.779 31.1099 27.9822 31.1099C28.1854 31.1099 28.3802 31.0447 28.5239 30.9287L33.9379 26.7509C34.0142 26.6966 34.0754 26.6299 34.1175 26.5552C34.1537 26.4833 34.173 26.4065 34.1742 26.3289L34.1742 26.3009C34.1755 26.2168 34.1552 26.1334 34.1146 26.0559C34.0739 25.9785 34.0138 25.9087 33.9379 25.8509L28.5239 21.6731C28.38 21.5576 28.1852 21.4927 27.9822 21.4926Z" fill="#434343"/>
<rect x="0.758301" y="50.2415" width="49" height="49" rx="1.5" transform="rotate(-90 0.758301 50.2415)" stroke="#E5E5E5"/>
</svg>
