<svg width="44" height="43" viewBox="0 0 44 43" fill="none" xmlns="http://www.w3.org/2000/svg">
<rect x="0.443359" width="43" height="43" fill="white"/>
<path d="M25.2444 11.7857L31.9538 16.1428C32.535 16.5202 32.6988 17.2907 32.3242 17.8675L32.3118 17.8866L32.2993 17.9059L32.2867 17.9252L32.2741 17.9447L32.2614 17.9642L32.2487 17.9838L32.2359 18.0035L32.2231 18.0232L32.2102 18.0431L32.1972 18.063L32.1842 18.083L32.1712 18.1032L32.1581 18.1233L32.1449 18.1436L32.1317 18.164L32.1184 18.1844L32.1051 18.2049L32.0917 18.2255L32.0783 18.2462L32.0648 18.267L32.0513 18.2878L32.0377 18.3087L32.0241 18.3297L32.0104 18.3508L31.9966 18.3719L31.9828 18.3932L31.969 18.4145L31.9551 18.4359L31.9412 18.4573L31.9272 18.4789L31.9131 18.5005L31.8991 18.5222L31.8849 18.5439L31.8707 18.5658L31.8565 18.5877L31.8422 18.6097L31.8279 18.6318L31.8135 18.6539L31.7991 18.6761L31.7846 18.6984L31.7701 18.7207L31.7556 18.7432L31.741 18.7656L31.7263 18.7882L31.7116 18.8109L31.6969 18.8336L31.6821 18.8563L31.6672 18.8792L31.6523 18.9021L31.6374 18.9251L31.6224 18.9481L31.6074 18.9713L31.5924 18.9944L31.5773 19.0177L31.5621 19.041L31.5469 19.0644L31.5317 19.0878L31.5164 19.1114L31.5011 19.1349L31.4858 19.1586L31.4704 19.1823L31.4549 19.2061L31.4395 19.2299L31.4239 19.2538L31.4084 19.2778L31.3928 19.3018L31.3771 19.3259L31.3614 19.35L31.3457 19.3743L31.33 19.3985L31.3142 19.4229L31.2983 19.4473L31.2824 19.4717L31.2665 19.4962L31.2506 19.5208L31.2346 19.5454L31.2185 19.5701L31.2025 19.5948L31.1864 19.6196L31.1702 19.6445L31.154 19.6694L31.1378 19.6944L31.1216 19.7194L31.1053 19.7445L31.089 19.7696L31.0726 19.7948L31.0562 19.8201L31.0398 19.8454L31.0233 19.8707L31.0068 19.8961L30.9903 19.9216L30.9737 19.9471L30.9571 19.9726L30.9405 19.9982L30.9238 20.0239L30.9071 20.0496L30.8904 20.0754L30.8736 20.1012L30.8568 20.1271L30.84 20.153L30.8232 20.1789L30.8063 20.2049L30.7893 20.231L30.7724 20.2571L30.7554 20.2832L30.7384 20.3094L30.7214 20.3357L30.7043 20.362L30.6872 20.3883L30.6701 20.4147L30.6529 20.4411L30.6357 20.4676L30.6185 20.4941L30.6012 20.5207L30.584 20.5473L30.5667 20.5739L30.5493 20.6006L30.532 20.6273L30.5146 20.6541L30.4972 20.6809L30.4797 20.7077L30.4623 20.7346L30.4448 20.7616L30.4273 20.7885L30.4097 20.8155L30.3922 20.8426L30.3746 20.8697L30.357 20.8968L30.3393 20.924L30.3217 20.9512L30.304 20.9784L30.2863 21.0057L30.2685 21.033L30.2508 21.0603L30.233 21.0877L30.2152 21.1151L30.1974 21.1426L30.1795 21.1701L30.1616 21.1976L30.1437 21.2251L30.1258 21.2527L30.1079 21.2803L30.0899 21.308L30.072 21.3357L30.054 21.3634L30.0359 21.3911L30.0179 21.4189L29.9999 21.4467L29.9818 21.4745L29.9637 21.5024L29.9456 21.5303L29.9274 21.5582L29.9093 21.5862L29.8911 21.6142L29.8729 21.6422L29.8547 21.6702L29.8365 21.6983L29.8183 21.7263L29.8 21.7545L29.7817 21.7826L29.7634 21.8108L29.7451 21.8389L29.7268 21.8672L29.7085 21.8954L29.6901 21.9237L29.6717 21.9519L29.6534 21.9802L29.635 22.0086L29.6166 22.0369L29.5981 22.0653L29.5797 22.0937L29.5612 22.1221L29.5428 22.1506L29.5243 22.179L29.5058 22.2075L29.4873 22.236L29.4688 22.2645L29.4502 22.293L29.4317 22.3216L29.4131 22.3502L29.3946 22.3787L29.376 22.4073L29.3574 22.436L29.3388 22.4646L29.3202 22.4933L29.3016 22.5219L29.283 22.5506L29.2643 22.5793L29.2457 22.608L29.227 22.6367L29.2084 22.6655L29.1897 22.6942L29.171 22.723L29.1523 22.7518L29.1336 22.7806L29.1149 22.8094L29.0962 22.8382L29.0775 22.867L29.0588 22.8958L29.04 22.9247L29.0213 22.9535L29.0026 22.9824L28.9838 23.0113L28.9651 23.0402L28.9463 23.069L28.9275 23.0979L28.9088 23.1268L28.89 23.1558L28.8712 23.1847L28.8524 23.2136L28.8336 23.2425L28.8148 23.2715L28.796 23.3004L28.7773 23.3293L28.7585 23.3583L28.7396 23.3872L28.7208 23.4162L28.702 23.4452L28.6832 23.4741L28.6644 23.5031L28.6456 23.5321L28.6268 23.561L28.608 23.59L28.5892 23.619L28.5704 23.6479L28.5516 23.6769L28.5327 23.7059L28.5139 23.7348L28.4951 23.7638L28.4763 23.7928L28.4575 23.8217L28.4387 23.8507L28.4199 23.8796L28.4011 23.9086L28.3823 23.9375L28.3635 23.9665L28.3447 23.9954L28.3259 24.0244L28.3071 24.0533L28.2883 24.0822L28.2695 24.1112L28.2508 24.1401L28.232 24.169L28.2132 24.1979L28.1945 24.2268L28.1757 24.2557L28.1569 24.2845L28.1382 24.3134L28.1195 24.3423L28.1007 24.3711L28.082 24.3999L28.0633 24.4288L28.0446 24.4576L28.0258 24.4864L28.0071 24.5152L27.9885 24.544L27.9698 24.5728L27.9511 24.6015L27.9324 24.6303L27.9138 24.659L27.8951 24.6877L27.8765 24.7164L27.8578 24.7451L27.8392 24.7738L27.8206 24.8025L27.802 24.8311L27.7834 24.8597L27.7648 24.8883L27.7463 24.9169L27.7277 24.9455L27.7091 24.9741L27.6906 25.0026L27.6721 25.0312L27.6536 25.0597L27.6351 25.0881L27.6166 25.1166L27.5981 25.1451L27.5797 25.1735L27.5612 25.2019L27.5428 25.2303L27.5244 25.2586L27.5059 25.287L27.4876 25.3153L27.4692 25.3436L27.4508 25.3719L27.4325 25.4001L27.4141 25.4284L27.3958 25.4566L27.3775 25.4847L27.3592 25.5129L27.341 25.541L27.3227 25.5691L27.3045 25.5972L27.2863 25.6252L27.2681 25.6533L27.2499 25.6813L27.2317 25.7092L27.2136 25.7372L27.1955 25.7651L27.1774 25.7929L27.1593 25.8208L27.1412 25.8486L27.1232 25.8764L27.1051 25.9042L27.0871 25.9319L27.0691 25.9596L27.0512 25.9873L27.0332 26.0149L27.0153 26.0425L26.9974 26.0701L26.9795 26.0976L26.9617 26.1251L26.9438 26.1526L26.926 26.18L26.9082 26.2074L26.8904 26.2348L26.8727 26.2621L26.855 26.2894L26.8373 26.3167L26.8196 26.3439L26.8019 26.3711L26.7843 26.3982L26.7667 26.4253L26.7491 26.4524L26.7316 26.4794L26.714 26.5064L26.6965 26.5334L26.6791 26.5603L26.6616 26.5872L26.6442 26.614L26.6268 26.6408L26.6094 26.6675L26.5921 26.6942L26.5747 26.7209L26.5575 26.7475L26.5402 26.7741L26.523 26.8006L26.5058 26.8271L26.4886 26.8536L26.4714 26.88L26.4543 26.9064L26.4372 26.9327L26.4202 26.9589L26.4031 26.9852L26.3861 27.0113L26.3692 27.0375L26.3522 27.0635L26.3353 27.0896L26.3185 27.1156L26.3016 27.1415L26.2848 27.1674L26.268 27.1932L26.2513 27.219L26.2345 27.2448L26.2179 27.2705L26.2012 27.2961L26.1846 27.3217L26.168 27.3472L26.1515 27.3727L26.1349 27.3981L26.1185 27.4235L26.102 27.4488L26.0856 27.4741L26.0692 27.4993L26.0529 27.5245L26.0366 27.5496L26.0203 27.5747L26.0041 27.5997L25.9879 27.6246L25.9717 27.6495L25.9556 27.6743L25.9395 27.6991L25.9234 27.7238L25.9074 27.7485L25.8915 27.7731L25.8755 27.7976L25.8596 27.8221L25.8438 27.8465L25.8279 27.8709L25.8122 27.8952L25.7964 27.9194L25.7807 27.9436L25.765 27.9677L25.7494 27.9918L25.7338 28.0158L25.7183 28.0397L25.7028 28.0636L25.6873 28.0874L25.6719 28.1112L25.6565 28.1349L25.6412 28.1585L25.6259 28.182L25.6106 28.2055L25.5954 28.2289L25.5803 28.2523L25.5651 28.2756L25.55 28.2988L25.535 28.322L25.52 28.345L25.5051 28.3681L25.4902 28.391L25.4753 28.4139L25.4605 28.4367L25.4457 28.4595L25.431 28.4821L25.4163 28.5047L25.4017 28.5273L25.3871 28.5497L25.3725 28.5721L25.3581 28.5945L25.3436 28.6167L25.3292 28.6389L25.3148 28.661L25.3005 28.683L25.2863 28.705L25.2721 28.7268L25.2579 28.7487L25.2438 28.7704L25.2297 28.792L25.2157 28.8136L25.2018 28.8351L25.1878 28.8566L25.174 28.8779L25.1602 28.8992L25.1464 28.9204L25.1327 28.9415L25.119 28.9625L25.1054 28.9835L25.0918 29.0044L25.0783 29.0252L25.0649 29.0459L25.0515 29.0665L25.0381 29.0871L25.0248 29.1076L25.0116 29.128L24.9984 29.1483L24.9852 29.1685L24.9721 29.1887L24.9591 29.2088L24.9461 29.2287L24.9332 29.2486L24.9203 29.2685L24.9075 29.2882L24.8948 29.3078L24.8821 29.3274L24.8694 29.3469L24.8568 29.3663L24.8443 29.3856L24.8318 29.4048L24.8194 29.4239L24.807 29.443L24.7947 29.4619L24.7825 29.4808L24.7703 29.4996L24.7581 29.5182L24.7461 29.5368L24.734 29.5553L24.7221 29.5738L24.7102 29.5921L24.6983 29.6103L24.6866 29.6285L24.6748 29.6465L24.6632 29.6645L24.6516 29.6823L24.64 29.7001L24.6285 29.7178L24.6171 29.7354L24.6058 29.7529L24.5945 29.7703L24.5832 29.7876L24.5721 29.8048L24.561 29.8219L24.5499 29.8389L24.5389 29.8558L24.528 29.8726L24.5171 29.8893L24.5063 29.906L24.4956 29.9225L24.485 29.9389L24.4743 29.9552L24.4638 29.9715L24.4533 29.9876L24.4429 30.0036L24.4326 30.0195L24.4223 30.0354L24.4121 30.0511L24.402 30.0667L24.3919 30.0822L24.3819 30.0977L24.3719 30.113L24.362 30.1282L24.3522 30.1433L24.3425 30.1583L24.3328 30.1732L24.3232 30.188L24.3137 30.2027L24.3042 30.2173L24.2948 30.2317L24.2855 30.2461L24.2762 30.2604L24.267 30.2745L24.2579 30.2886L24.2488 30.3025L24.2398 30.3163L24.2309 30.3301L24.2221 30.3437L24.2133 30.3572L24.2046 30.3706L24.196 30.3839L24.1874 30.397L24.179 30.4101L24.1705 30.423C22.5159 32.971 19.4141 33.6352 16.8894 31.9956C14.3647 30.3561 13.7098 27.2523 15.3645 24.7043L15.3729 24.6914L15.3814 24.6783L15.39 24.6652L15.3986 24.6519L15.4073 24.6385L15.416 24.625L15.4249 24.6114L15.4338 24.5976L15.4428 24.5838L15.4518 24.5699L15.461 24.5558L15.4702 24.5417L15.4794 24.5274L15.4888 24.513L15.4982 24.4985L15.5076 24.484L15.5172 24.4693L15.5268 24.4545L15.5364 24.4396L15.5462 24.4246L15.556 24.4095L15.5659 24.3943L15.5758 24.3789L15.5858 24.3635L15.5959 24.348L15.6061 24.3324L15.6163 24.3167L15.6265 24.3008L15.6369 24.2849L15.6473 24.2689L15.6578 24.2528L15.6683 24.2365L15.6789 24.2202L15.6896 24.2038L15.7003 24.1872L15.7111 24.1706L15.722 24.1539L15.7329 24.1371L15.7439 24.1202L15.7549 24.1032L15.766 24.0861L15.7772 24.0688L15.7884 24.0515L15.7997 24.0342L15.8111 24.0167L15.8225 23.9991L15.834 23.9814L15.8455 23.9636L15.8571 23.9458L15.8688 23.9278L15.8805 23.9098L15.8923 23.8916L15.9041 23.8734L15.916 23.8551L15.928 23.8366L15.94 23.8181L15.9521 23.7995L15.9642 23.7809L15.9764 23.7621L15.9887 23.7432L16.001 23.7243L16.0133 23.7052L16.0258 23.6861L16.0382 23.6669L16.0508 23.6476L16.0634 23.6282L16.076 23.6087L16.0887 23.5891L16.1015 23.5695L16.1143 23.5498L16.1272 23.5299L16.1401 23.51L16.1531 23.4901L16.1661 23.47L16.1792 23.4498L16.1923 23.4296L16.2055 23.4093L16.2188 23.3889L16.2321 23.3684L16.2454 23.3478L16.2588 23.3272L16.2723 23.3065L16.2858 23.2857L16.2994 23.2648L16.313 23.2438L16.3266 23.2228L16.3404 23.2017L16.3541 23.1805L16.3679 23.1592L16.3818 23.1378L16.3957 23.1164L16.4097 23.0949L16.4237 23.0733L16.4378 23.0517L16.4519 23.0299L16.466 23.0081L16.4802 22.9863L16.4945 22.9643L16.5088 22.9423L16.5232 22.9202L16.5376 22.898L16.552 22.8757L16.5665 22.8534L16.581 22.831L16.5956 22.8086L16.6103 22.786L16.6249 22.7634L16.6397 22.7408L16.6544 22.718L16.6693 22.6952L16.6841 22.6723L16.699 22.6494L16.714 22.6263L16.729 22.6033L16.744 22.5801L16.7591 22.5569L16.7742 22.5336L16.7894 22.5102L16.8046 22.4868L16.8198 22.4633L16.8351 22.4398L16.8505 22.4161L16.8659 22.3925L16.8813 22.3687L16.8967 22.3449L16.9122 22.321L16.9278 22.2971L16.9434 22.2731L16.959 22.249L16.9747 22.2249L16.9904 22.2007L17.0061 22.1765L17.0219 22.1522L17.0377 22.1278L17.0536 22.1034L17.0695 22.0789L17.0854 22.0544L17.1014 22.0298L17.1174 22.0051L17.1335 21.9804L17.1495 21.9556L17.1657 21.9308L17.1818 21.9059L17.198 21.881L17.2143 21.856L17.2305 21.8309L17.2468 21.8058L17.2632 21.7806L17.2796 21.7554L17.296 21.7301L17.3124 21.7048L17.3289 21.6794L17.3454 21.654L17.362 21.6285L17.3786 21.603L17.3952 21.5774L17.4118 21.5517L17.4285 21.5261L17.4452 21.5003L17.462 21.4745L17.4788 21.4487L17.4956 21.4228L17.5124 21.3969L17.5293 21.3709L17.5462 21.3448L17.5631 21.3188L17.5801 21.2926L17.5971 21.2665L17.6141 21.2402L17.6312 21.214L17.6483 21.1876L17.6654 21.1613L17.6825 21.1349L17.6997 21.1084L17.7169 21.0819L17.7342 21.0554L17.7514 21.0288L17.7687 21.0022L17.786 20.9755L17.8034 20.9488L17.8207 20.9221L17.8381 20.8953L17.8556 20.8685L17.873 20.8416L17.8905 20.8147L17.908 20.7877L17.9255 20.7607L17.9431 20.7337L17.9607 20.7066L17.9783 20.6795L17.9959 20.6524L18.0135 20.6252L18.0312 20.598L18.0489 20.5707L18.0666 20.5434L18.0844 20.5161L18.1022 20.4887L18.12 20.4613L18.1378 20.4339L18.1556 20.4064L18.1735 20.3789L18.1914 20.3514L18.2093 20.3238L18.2272 20.2962L18.2451 20.2686L18.2631 20.2409L18.2811 20.2132L18.2991 20.1855L18.3171 20.1577L18.3352 20.1299L18.3532 20.1021L18.3713 20.0742L18.3894 20.0464L18.4076 20.0185L18.4257 19.9905L18.4439 19.9625L18.462 19.9346L18.4802 19.9065L18.4985 19.8785L18.5167 19.8504L18.5349 19.8223L18.5532 19.7942L18.5715 19.766L18.5898 19.7378L18.6081 19.7096L18.6264 19.6814L18.6448 19.6532L18.6631 19.6249L18.6815 19.5966L18.6999 19.5683L18.7183 19.5399L18.7367 19.5116L18.7552 19.4832L18.7736 19.4548L18.7921 19.4264L18.8105 19.3979L18.829 19.3694L18.8475 19.3409L18.866 19.3124L18.8846 19.2839L18.9031 19.2554L18.9217 19.2268L18.9402 19.1982L18.9588 19.1696L18.9774 19.141L18.996 19.1124L19.0146 19.0837L19.0332 19.0551L19.0518 19.0264L19.0704 18.9977L19.0891 18.969L19.1077 18.9403L19.1264 18.9116L19.1451 18.8828L19.1637 18.8541L19.1824 18.8253L19.2011 18.7965L19.2198 18.7677L19.2385 18.7389L19.2572 18.7101L19.276 18.6812L19.2947 18.6524L19.3134 18.6235L19.3322 18.5947L19.3509 18.5658L19.3697 18.5369L19.3884 18.5081L19.4072 18.4792L19.426 18.4503L19.4447 18.4214L19.4635 18.3924L19.4823 18.3635L19.5011 18.3346L19.5199 18.3057L19.5386 18.2767L19.5574 18.2478L19.5762 18.2188L19.595 18.1899L19.6138 18.1609L19.6327 18.132L19.6515 18.103L19.6703 18.0741L19.6891 18.0451L19.7079 18.0161L19.7267 17.9872L19.7455 17.9582L19.7643 17.9292L19.7831 17.9002L19.8019 17.8713L19.8208 17.8423L19.8396 17.8133L19.8584 17.7844L19.8772 17.7554L19.896 17.7265L19.9148 17.6975L19.9336 17.6685L19.9524 17.6396L19.9712 17.6106L19.99 17.5817L20.0088 17.5528L20.0276 17.5238L20.0464 17.4949L20.0652 17.466L20.0839 17.4371L20.1027 17.4081L20.1215 17.3792L20.1403 17.3503L20.159 17.3215L20.1778 17.2926L20.1965 17.2637L20.2153 17.2348L20.234 17.206L20.2527 17.1771L20.2715 17.1483L20.2902 17.1195L20.3089 17.0907L20.3276 17.0619L20.3463 17.0331L20.365 17.0043L20.3837 16.9755L20.4023 16.9468L20.421 16.918L20.4396 16.8893L20.4583 16.8606L20.4769 16.8319L20.4956 16.8032L20.5142 16.7745L20.5328 16.7459L20.5514 16.7173L20.57 16.6886L20.5885 16.66L20.6071 16.6314L20.6257 16.6029L20.6442 16.5743L20.6627 16.5458L20.6813 16.5173L20.6998 16.4888L20.7182 16.4603L20.7367 16.4318L20.7552 16.4034L20.7736 16.375L20.7921 16.3466L20.8105 16.3182L20.8289 16.2899L20.8473 16.2615L20.8657 16.2332L20.8841 16.205L20.9024 16.1767L20.9208 16.1485L20.9391 16.1202L20.9574 16.092L20.9757 16.0639L20.994 16.0357L21.0122 16.0076L21.0305 15.9795L21.0487 15.9515L21.0669 15.9235L21.0851 15.8954L21.1032 15.8675L21.1214 15.8395L21.1395 15.8116L21.1576 15.7837L21.1757 15.7558L21.1938 15.728L21.2119 15.7002L21.2299 15.6724L21.2479 15.6447L21.2659 15.617L21.2839 15.5893L21.3019 15.5616L21.3198 15.534L21.3377 15.5064L21.3556 15.4789L21.3735 15.4514L21.3913 15.4239L21.4091 15.3964L21.4269 15.369L21.4447 15.3416L21.4625 15.3143L21.4802 15.287L21.4979 15.2597L21.5156 15.2325L21.5333 15.2053L21.5509 15.1781L21.5685 15.151L21.5861 15.1239L21.6037 15.0968L21.6212 15.0698L21.6388 15.0428L21.6562 15.0159L21.6737 14.989L21.6911 14.9622L21.7086 14.9354L21.7259 14.9086L21.7433 14.8819L21.7606 14.8552L21.7779 14.8285L21.7952 14.8019L21.8124 14.7754L21.8297 14.7489L21.8469 14.7224L21.864 14.696L21.8811 14.6696L21.8982 14.6433L21.9153 14.617L21.9324 14.5907L21.9494 14.5645L21.9664 14.5384L21.9833 14.5123L22.0002 14.4862L22.0171 14.4602L22.034 14.4343L22.0508 14.4083L22.0676 14.3825L22.0844 14.3567L22.1011 14.3309L22.1178 14.3052L22.1345 14.2795L22.1511 14.2539L22.1677 14.2284L22.1843 14.2029L22.2008 14.1774L22.2173 14.152L22.2337 14.1266L22.2502 14.1013L22.2666 14.0761L22.2829 14.0509L22.2992 14.0258L22.3155 14.0007L22.3318 13.9757L22.348 13.9507L22.3642 13.9258L22.3803 13.9009L22.3964 13.8761L22.4125 13.8514L22.4285 13.8267L22.4445 13.8021L22.4605 13.7775L22.4764 13.753L22.4923 13.7285L22.5081 13.7042L22.5239 13.6798L22.5397 13.6556L22.5554 13.6313L22.5711 13.6072L22.5867 13.5831L22.6023 13.5591L22.6179 13.5351L22.6334 13.5112L22.6489 13.4874L22.6643 13.4636L22.6797 13.4399L22.6951 13.4162L22.7104 13.3927L22.7257 13.3691L22.7409 13.3457L22.7561 13.3223L22.7712 13.299L22.7863 13.2757L22.8014 13.2525L22.8164 13.2294L22.8314 13.2064L22.8463 13.1834L22.8612 13.1605L22.876 13.1376L22.8908 13.1149L22.9056 13.0921L22.9203 13.0695L22.9349 13.0469L22.9495 13.0244L22.9641 13.002L22.9786 12.9797L22.9931 12.9574L23.0075 12.9352L23.0219 12.913L23.0362 12.891L23.0505 12.869L23.0647 12.8471L23.0789 12.8252L23.093 12.8035L23.1071 12.7818L23.1211 12.7602L23.1351 12.7386L23.1491 12.7172L23.163 12.6958L23.1768 12.6745L23.1906 12.6532L23.2043 12.6321L23.218 12.611L23.2316 12.59L23.2452 12.5691L23.2588 12.5483L23.2722 12.5275L23.2857 12.5068L23.2991 12.4862L23.3124 12.4657L23.3256 12.4453L23.3389 12.4249L23.352 12.4046L23.3651 12.3844L23.3782 12.3643L23.3912 12.3443L23.4041 12.3244L23.417 12.3045L23.4299 12.2848L23.4427 12.2651L23.4554 12.2455L23.4681 12.2259L23.4807 12.2065L23.4932 12.1872L23.5058 12.1679L23.5182 12.1488C23.8928 11.5719 24.6633 11.4083 25.2444 11.7857Z" fill="white" stroke="#C1C1C1" stroke-width="1.5"/>
<circle cx="17.0254" cy="31.7859" r="0.5" transform="rotate(33 17.0254 31.7859)" fill="#1E1E1E"/>
<line x1="22.3636" y1="14.3861" x2="30.7503" y2="19.8325" stroke="#C1C1C1"/>
<path d="M20.0922 10.4669L27.8196 12.5375C28.489 12.7168 28.8829 13.399 28.7049 14.0633L28.699 14.0854L28.693 14.1075L28.6871 14.1298L28.6811 14.1522L28.675 14.1747L28.669 14.1973L28.6629 14.2199L28.6568 14.2427L28.6507 14.2656L28.6445 14.2885L28.6384 14.3116L28.6322 14.3347L28.6259 14.358L28.6197 14.3813L28.6134 14.4048L28.6071 14.4283L28.6008 14.452L28.5944 14.4757L28.588 14.4995L28.5816 14.5234L28.5752 14.5474L28.5687 14.5715L28.5622 14.5957L28.5557 14.62L28.5492 14.6443L28.5427 14.6688L28.5361 14.6933L28.5295 14.7179L28.5229 14.7427L28.5162 14.7675L28.5095 14.7924L28.5028 14.8174L28.4961 14.8424L28.4894 14.8676L28.4826 14.8928L28.4758 14.9181L28.469 14.9436L28.4622 14.969L28.4553 14.9946L28.4485 15.0203L28.4416 15.046L28.4346 15.0719L28.4277 15.0978L28.4207 15.1238L28.4138 15.1498L28.4067 15.176L28.3997 15.2022L28.3927 15.2285L28.3856 15.2549L28.3785 15.2814L28.3714 15.3079L28.3643 15.3346L28.3571 15.3613L28.3499 15.3881L28.3427 15.4149L28.3355 15.4418L28.3283 15.4689L28.321 15.4959L28.3137 15.5231L28.3064 15.5503L28.2991 15.5776L28.2918 15.605L28.2844 15.6325L28.2771 15.66L28.2697 15.6876L28.2622 15.7153L28.2548 15.743L28.2474 15.7708L28.2399 15.7987L28.2324 15.8267L28.2249 15.8547L28.2174 15.8828L28.2098 15.911L28.2022 15.9392L28.1947 15.9675L28.1871 15.9958L28.1794 16.0243L28.1718 16.0528L28.1642 16.0813L28.1565 16.11L28.1488 16.1387L28.1411 16.1674L28.1334 16.1962L28.1256 16.2251L28.1179 16.2541L28.1101 16.2831L28.1023 16.3122L28.0945 16.3413L28.0867 16.3705L28.0788 16.3998L28.071 16.4291L28.0631 16.4585L28.0552 16.4879L28.0473 16.5174L28.0394 16.5469L28.0315 16.5766L28.0235 16.6062L28.0156 16.636L28.0076 16.6657L27.9996 16.6956L27.9916 16.7255L27.9835 16.7554L27.9755 16.7855L27.9674 16.8155L27.9594 16.8456L27.9513 16.8758L27.9432 16.906L27.9351 16.9363L27.9269 16.9666L27.9188 16.997L27.9106 17.0275L27.9025 17.0579L27.8943 17.0885L27.8861 17.1191L27.8779 17.1497L27.8697 17.1804L27.8614 17.2111L27.8532 17.2419L27.8449 17.2727L27.8367 17.3036L27.8284 17.3345L27.8201 17.3655L27.8118 17.3965L27.8034 17.4276L27.7951 17.4587L27.7868 17.4898L27.7784 17.521L27.77 17.5523L27.7616 17.5836L27.7532 17.6149L27.7448 17.6463L27.7364 17.6777L27.728 17.7091L27.7196 17.7406L27.7111 17.7722L27.7026 17.8037L27.6942 17.8354L27.6857 17.867L27.6772 17.8987L27.6687 17.9304L27.6602 17.9622L27.6517 17.994L27.6431 18.0259L27.6346 18.0577L27.626 18.0897L27.6175 18.1216L27.6089 18.1536L27.6003 18.1856L27.5917 18.2177L27.5831 18.2498L27.5745 18.2819L27.5659 18.3141L27.5573 18.3463L27.5486 18.3785L27.54 18.4107L27.5313 18.443L27.5227 18.4753L27.514 18.5077L27.5053 18.5401L27.4967 18.5725L27.488 18.6049L27.4793 18.6374L27.4706 18.6699L27.4618 18.7024L27.4531 18.735L27.4444 18.7675L27.4357 18.8001L27.4269 18.8328L27.4182 18.8654L27.4094 18.8981L27.4006 18.9308L27.3919 18.9635L27.3831 18.9963L27.3743 19.0291L27.3655 19.0618L27.3567 19.0947L27.3479 19.1275L27.3391 19.1604L27.3303 19.1933L27.3215 19.2262L27.3127 19.2591L27.3039 19.292L27.295 19.325L27.2862 19.358L27.2773 19.391L27.2685 19.424L27.2596 19.457L27.2508 19.4901L27.2419 19.5232L27.2331 19.5562L27.2242 19.5893L27.2153 19.6225L27.2064 19.6556L27.1976 19.6887L27.1887 19.7219L27.1798 19.7551L27.1709 19.7882L27.162 19.8214L27.1531 19.8547L27.1442 19.8879L27.1353 19.9211L27.1264 19.9544L27.1175 19.9876L27.1086 20.0209L27.0997 20.0541L27.0907 20.0874L27.0818 20.1207L27.0729 20.154L27.064 20.1873L27.055 20.2206L27.0461 20.2539L27.0372 20.2873L27.0283 20.3206L27.0193 20.3539L27.0104 20.3873L27.0015 20.4206L26.9925 20.454L26.9836 20.4873L26.9746 20.5207L26.9657 20.554L26.9568 20.5874L26.9478 20.6208L26.9389 20.6541L26.9299 20.6875L26.921 20.7209L26.9121 20.7542L26.9031 20.7876L26.8942 20.8209L26.8852 20.8543L26.8763 20.8877L26.8674 20.921L26.8584 20.9544L26.8495 20.9877L26.8406 21.0211L26.8316 21.0544L26.8227 21.0878L26.8138 21.1211L26.8048 21.1544L26.7959 21.1877L26.787 21.2211L26.7781 21.2544L26.7691 21.2877L26.7602 21.321L26.7513 21.3542L26.7424 21.3875L26.7335 21.4208L26.7245 21.4541L26.7156 21.4873L26.7067 21.5205L26.6978 21.5538L26.6889 21.587L26.68 21.6202L26.6711 21.6534L26.6622 21.6866L26.6534 21.7197L26.6445 21.7529L26.6356 21.786L26.6267 21.8191L26.6178 21.8522L26.609 21.8853L26.6001 21.9184L26.5913 21.9515L26.5824 21.9845L26.5736 22.0176L26.5647 22.0506L26.5559 22.0836L26.547 22.1165L26.5382 22.1495L26.5294 22.1824L26.5206 22.2153L26.5117 22.2482L26.5029 22.2811L26.4941 22.314L26.4853 22.3468L26.4765 22.3796L26.4678 22.4124L26.459 22.4452L26.4502 22.4779L26.4414 22.5106L26.4327 22.5433L26.4239 22.576L26.4152 22.6086L26.4064 22.6412L26.3977 22.6738L26.389 22.7064L26.3803 22.7389L26.3716 22.7714L26.3629 22.8039L26.3542 22.8364L26.3455 22.8688L26.3368 22.9012L26.3281 22.9336L26.3195 22.9659L26.3108 22.9982L26.3021 23.0305L26.2935 23.0627L26.2849 23.0949L26.2763 23.1271L26.2676 23.1592L26.259 23.1914L26.2504 23.2234L26.2419 23.2555L26.2333 23.2875L26.2247 23.3195L26.2162 23.3514L26.2076 23.3833L26.1991 23.4152L26.1905 23.447L26.182 23.4788L26.1735 23.5105L26.165 23.5423L26.1565 23.5739L26.148 23.6056L26.1396 23.6372L26.1311 23.6687L26.1227 23.7002L26.1142 23.7317L26.1058 23.7632L26.0974 23.7945L26.089 23.8259L26.0806 23.8572L26.0722 23.8885L26.0639 23.9197L26.0555 23.9509L26.0472 23.982L26.0389 24.0131L26.0305 24.0441L26.0222 24.0751L26.0139 24.1061L26.0057 24.137L25.9974 24.1678L25.9891 24.1986L25.9809 24.2294L25.9727 24.2601L25.9644 24.2908L25.9562 24.3214L25.9481 24.352L25.9399 24.3825L25.9317 24.4129L25.9236 24.4433L25.9154 24.4737L25.9073 24.504L25.8992 24.5343L25.8911 24.5645L25.883 24.5946L25.875 24.6247L25.8669 24.6547L25.8589 24.6847L25.8509 24.7147L25.8429 24.7445L25.8349 24.7744L25.8269 24.8041L25.8189 24.8338L25.811 24.8635L25.8031 24.893L25.7952 24.9226L25.7873 24.952L25.7794 24.9815L25.7715 25.0108L25.7637 25.0401L25.7558 25.0693L25.748 25.0985L25.7402 25.1276L25.7324 25.1567L25.7247 25.1856L25.7169 25.2146L25.7092 25.2434L25.7015 25.2722L25.6938 25.3009L25.6861 25.3296L25.6784 25.3582L25.6708 25.3867L25.6632 25.4152L25.6555 25.4436L25.648 25.4719L25.6404 25.5002L25.6328 25.5284L25.6253 25.5565L25.6178 25.5846L25.6103 25.6126L25.6028 25.6405L25.5953 25.6684L25.5879 25.6961L25.5805 25.7239L25.573 25.7515L25.5657 25.7791L25.5583 25.8066L25.5509 25.834L25.5436 25.8613L25.5363 25.8886L25.529 25.9158L25.5218 25.9429L25.5145 25.97L25.5073 25.997L25.5001 26.0239L25.4929 26.0507L25.4857 26.0774L25.4786 26.1041L25.4714 26.1307L25.4643 26.1572L25.4573 26.1836L25.4502 26.21L25.4432 26.2363L25.4361 26.2625L25.4291 26.2886L25.4222 26.3146L25.4152 26.3406L25.4083 26.3664L25.4014 26.3922L25.3945 26.4179L25.3876 26.4436L25.3808 26.4691L25.3739 26.4946L25.3671 26.5199L25.3604 26.5452L25.3536 26.5704L25.3469 26.5955L25.3402 26.6206L25.3335 26.6455L25.3268 26.6704L25.3202 26.6951L25.3136 26.7198L25.307 26.7444L25.3004 26.7689L25.2939 26.7933L25.2874 26.8176L25.2809 26.8419L25.2744 26.866L25.268 26.8901L25.2615 26.914L25.2552 26.9379L25.2488 26.9617L25.2424 26.9854L25.2361 27.0089L25.2298 27.0324L25.2236 27.0558L25.2173 27.0791L25.2111 27.1023L25.2049 27.1255L25.1987 27.1485L25.1926 27.1714L25.1865 27.1942L25.1804 27.217L25.1743 27.2396L25.1683 27.2621L25.1623 27.2845L25.1563 27.3069L25.1503 27.3291L25.1444 27.3512L25.1385 27.3733L25.1326 27.3952L25.1268 27.417L25.1209 27.4388L25.1152 27.4604L25.1094 27.4819L25.1036 27.5033L25.0979 27.5246L25.0923 27.5458L25.0866 27.567L25.081 27.588L25.0754 27.6089L25.0698 27.6296L25.0643 27.6503L25.0587 27.6709L25.0533 27.6914L25.0478 27.7117L25.0424 27.732L25.037 27.7521L25.0316 27.7722L25.0263 27.7921L25.021 27.8119L25.0157 27.8316L25.0104 27.8512L25.0052 27.8707L25 27.89L24.9949 27.9093L24.9897 27.9284L24.9846 27.9475L24.9796 27.9664L24.9745 27.9852L24.9695 28.0039L24.9645 28.0225L24.9596 28.0409L24.9547 28.0593L24.9498 28.0775L24.9449 28.0956L24.9401 28.1136L24.9353 28.1315L24.9306 28.1492L24.9259 28.1669L24.9212 28.1844L24.9165 28.2018L24.9119 28.2191L24.9073 28.2362L24.9027 28.2533L24.8982 28.2702L24.8937 28.287L24.8892 28.3037L24.8848 28.3202L24.8804 28.3366L24.876 28.3529L24.8717 28.3691L24.8674 28.3852L24.8631 28.4011L24.8589 28.4169L24.8547 28.4326L24.8505 28.4481L24.8464 28.4636L24.8423 28.4789L24.8382 28.494L24.8342 28.5091L24.8302 28.524C24.0438 31.4586 21.2991 33.0487 18.3913 32.2696C15.4836 31.4905 13.9016 28.741 14.6879 25.8064L14.6919 25.7915L14.696 25.7764L14.7 25.7613L14.7041 25.746L14.7083 25.7305L14.7124 25.715L14.7166 25.6993L14.7209 25.6835L14.7251 25.6676L14.7294 25.6515L14.7338 25.6353L14.7381 25.619L14.7425 25.6026L14.747 25.5861L14.7514 25.5694L14.7559 25.5526L14.7605 25.5357L14.765 25.5186L14.7696 25.5015L14.7743 25.4842L14.7789 25.4668L14.7836 25.4493L14.7884 25.4316L14.7931 25.4139L14.7979 25.396L14.8027 25.378L14.8076 25.3599L14.8125 25.3417L14.8174 25.3233L14.8223 25.3049L14.8273 25.2863L14.8323 25.2676L14.8373 25.2488L14.8424 25.2299L14.8475 25.2108L14.8526 25.1917L14.8578 25.1724L14.863 25.1531L14.8682 25.1336L14.8735 25.114L14.8787 25.0943L14.8841 25.0745L14.8894 25.0546L14.8948 25.0345L14.9002 25.0144L14.9056 24.9941L14.911 24.9738L14.9165 24.9533L14.922 24.9327L14.9276 24.912L14.9332 24.8913L14.9387 24.8704L14.9444 24.8494L14.95 24.8282L14.9557 24.807L14.9614 24.7857L14.9672 24.7643L14.9729 24.7428L14.9787 24.7212L14.9845 24.6994L14.9904 24.6776L14.9963 24.6557L15.0022 24.6336L15.0081 24.6115L15.0141 24.5893L15.02 24.5669L15.0261 24.5445L15.0321 24.522L15.0382 24.4994L15.0442 24.4766L15.0504 24.4538L15.0565 24.4309L15.0627 24.4079L15.0689 24.3847L15.0751 24.3615L15.0813 24.3382L15.0876 24.3148L15.0939 24.2913L15.1002 24.2678L15.1066 24.2441L15.1129 24.2203L15.1193 24.1964L15.1257 24.1725L15.1322 24.1484L15.1387 24.1243L15.1452 24.1L15.1517 24.0757L15.1582 24.0513L15.1648 24.0268L15.1714 24.0022L15.178 23.9775L15.1846 23.9528L15.1913 23.9279L15.198 23.903L15.2047 23.8779L15.2114 23.8528L15.2181 23.8276L15.2249 23.8023L15.2317 23.777L15.2385 23.7515L15.2454 23.726L15.2523 23.7003L15.2591 23.6746L15.2661 23.6488L15.273 23.623L15.2799 23.597L15.2869 23.571L15.2939 23.5449L15.3009 23.5187L15.308 23.4924L15.315 23.466L15.3221 23.4396L15.3292 23.4131L15.3363 23.3865L15.3435 23.3598L15.3507 23.3331L15.3578 23.3063L15.3651 23.2794L15.3723 23.2524L15.3795 23.2253L15.3868 23.1982L15.3941 23.171L15.4014 23.1437L15.4087 23.1164L15.4161 23.089L15.4234 23.0615L15.4308 23.0339L15.4382 23.0063L15.4457 22.9785L15.4531 22.9508L15.4606 22.9229L15.468 22.895L15.4755 22.867L15.4831 22.8389L15.4906 22.8108L15.4982 22.7826L15.5057 22.7543L15.5133 22.726L15.5209 22.6976L15.5286 22.6691L15.5362 22.6406L15.5439 22.612L15.5516 22.5833L15.5593 22.5546L15.567 22.5258L15.5747 22.497L15.5824 22.468L15.5902 22.4391L15.598 22.41L15.6058 22.3809L15.6136 22.3517L15.6214 22.3225L15.6293 22.2932L15.6372 22.2639L15.645 22.2344L15.6529 22.205L15.6608 22.1754L15.6688 22.1459L15.6767 22.1162L15.6847 22.0865L15.6927 22.0568L15.7006 22.0269L15.7086 21.9971L15.7167 21.9671L15.7247 21.9371L15.7327 21.9071L15.7408 21.877L15.7489 21.8469L15.757 21.8167L15.7651 21.7864L15.7732 21.7561L15.7813 21.7257L15.7895 21.6953L15.7977 21.6649L15.8058 21.6344L15.814 21.6038L15.8222 21.5732L15.8304 21.5425L15.8387 21.5118L15.8469 21.481L15.8552 21.4502L15.8634 21.4194L15.8717 21.3885L15.88 21.3575L15.8883 21.3265L15.8966 21.2955L15.905 21.2644L15.9133 21.2333L15.9217 21.2021L15.93 21.1709L15.9384 21.1396L15.9468 21.1083L15.9552 21.0769L15.9636 21.0456L15.972 21.0141L15.9805 20.9826L15.9889 20.9511L15.9974 20.9196L16.0058 20.888L16.0143 20.8563L16.0228 20.8247L16.0313 20.7929L16.0398 20.7612L16.0483 20.7294L16.0568 20.6976L16.0654 20.6657L16.0739 20.6338L16.0825 20.6019L16.0911 20.5699L16.0996 20.5379L16.1082 20.5058L16.1168 20.4738L16.1254 20.4416L16.134 20.4095L16.1427 20.3773L16.1513 20.3451L16.1599 20.3129L16.1686 20.2806L16.1772 20.2483L16.1859 20.216L16.1946 20.1836L16.2032 20.1512L16.2119 20.1188L16.2206 20.0863L16.2293 20.0538L16.238 20.0213L16.2468 19.9888L16.2555 19.9562L16.2642 19.9236L16.273 19.891L16.2817 19.8584L16.2905 19.8257L16.2992 19.793L16.308 19.7603L16.3168 19.7276L16.3255 19.6948L16.3343 19.662L16.3431 19.6292L16.3519 19.5964L16.3607 19.5635L16.3695 19.5306L16.3783 19.4977L16.3872 19.4648L16.396 19.4319L16.4048 19.3989L16.4136 19.366L16.4225 19.333L16.4313 19.3L16.4402 19.2669L16.449 19.2339L16.4579 19.2008L16.4668 19.1677L16.4756 19.1347L16.4845 19.1015L16.4934 19.0684L16.5023 19.0353L16.5111 19.0021L16.52 18.969L16.5289 18.9358L16.5378 18.9026L16.5467 18.8694L16.5556 18.8362L16.5645 18.8029L16.5734 18.7697L16.5823 18.7365L16.5912 18.7032L16.6001 18.6699L16.6091 18.6367L16.618 18.6034L16.6269 18.5701L16.6358 18.5368L16.6448 18.5035L16.6537 18.4701L16.6626 18.4368L16.6715 18.4035L16.6805 18.3702L16.6894 18.3368L16.6983 18.3035L16.7073 18.2701L16.7162 18.2368L16.7251 18.2034L16.7341 18.1701L16.743 18.1367L16.752 18.1033L16.7609 18.07L16.7698 18.0366L16.7788 18.0033L16.7877 17.9699L16.7967 17.9365L16.8056 17.9032L16.8145 17.8698L16.8235 17.8364L16.8324 17.8031L16.8414 17.7697L16.8503 17.7364L16.8592 17.703L16.8682 17.6697L16.8771 17.6363L16.886 17.603L16.895 17.5697L16.9039 17.5363L16.9128 17.503L16.9217 17.4697L16.9307 17.4364L16.9396 17.4031L16.9485 17.3698L16.9574 17.3365L16.9663 17.3033L16.9753 17.27L16.9842 17.2368L16.9931 17.2035L17.002 17.1703L17.0109 17.1371L17.0198 17.1038L17.0287 17.0707L17.0376 17.0375L17.0465 17.0043L17.0553 16.9711L17.0642 16.938L17.0731 16.9049L17.082 16.8717L17.0908 16.8386L17.0997 16.8056L17.1086 16.7725L17.1174 16.7394L17.1263 16.7064L17.1351 16.6734L17.144 16.6404L17.1528 16.6074L17.1616 16.5744L17.1705 16.5415L17.1793 16.5086L17.1881 16.4757L17.1969 16.4428L17.2057 16.4099L17.2145 16.3771L17.2233 16.3443L17.2321 16.3115L17.2409 16.2787L17.2497 16.2459L17.2584 16.2132L17.2672 16.1805L17.2759 16.1478L17.2847 16.1152L17.2934 16.0825L17.3022 16.0499L17.3109 16.0174L17.3196 15.9848L17.3283 15.9523L17.337 15.9198L17.3457 15.8873L17.3544 15.8549L17.3631 15.8225L17.3718 15.7901L17.3805 15.7578L17.3891 15.7254L17.3978 15.6931L17.4064 15.6609L17.4151 15.6287L17.4237 15.5965L17.4323 15.5643L17.4409 15.5322L17.4495 15.5001L17.4581 15.468L17.4667 15.436L17.4752 15.404L17.4838 15.3721L17.4924 15.3401L17.5009 15.3083L17.5094 15.2764L17.518 15.2446L17.5265 15.2128L17.535 15.1811L17.5435 15.1494L17.552 15.1178L17.5604 15.0861L17.5689 15.0546L17.5773 15.023L17.5858 14.9915L17.5942 14.9601L17.6026 14.9287L17.611 14.8973L17.6194 14.866L17.6278 14.8347L17.6362 14.8034L17.6445 14.7722L17.6529 14.7411L17.6612 14.71L17.6695 14.6789L17.6778 14.6479L17.6861 14.6169L17.6944 14.586L17.7027 14.5551L17.711 14.5243L17.7192 14.4935L17.7274 14.4628L17.7357 14.4321L17.7439 14.4015L17.7521 14.3709L17.7603 14.3403L17.7684 14.3099L17.7766 14.2794L17.7847 14.249L17.7928 14.2187L17.801 14.1884L17.8091 14.1582L17.8171 14.128L17.8252 14.0979L17.8333 14.0679L17.8413 14.0378L17.8493 14.0079L17.8574 13.978L17.8653 13.9481L17.8733 13.9184L17.8813 13.8886L17.8892 13.859L17.8972 13.8293L17.9051 13.7998L17.913 13.7703L17.9209 13.7409L17.9288 13.7115L17.9366 13.6822L17.9445 13.6529L17.9523 13.6237L17.9601 13.5946L17.9679 13.5655L17.9757 13.5365L17.9834 13.5075L17.9911 13.4786L17.9989 13.4498L18.0066 13.4211L18.0143 13.3924L18.0219 13.3637L18.0296 13.3352L18.0372 13.3067L18.0448 13.2782L18.0524 13.2499L18.06 13.2216L18.0676 13.1934L18.0751 13.1652L18.0827 13.1371L18.0902 13.1091L18.0977 13.0811L18.1051 13.0532L18.1126 13.0254L18.12 12.9977L18.1274 12.97L18.1348 12.9424L18.1422 12.9149L18.1496 12.8874L18.1569 12.86L18.1642 12.8327L18.1715 12.8055L18.1788 12.7783L18.1861 12.7513L18.1933 12.7242L18.2005 12.6973L18.2077 12.6705L18.2149 12.6437L18.222 12.617L18.2292 12.5903L18.2363 12.5638L18.2434 12.5373L18.2504 12.5109L18.2575 12.4846L18.2645 12.4584L18.2715 12.4322L18.2785 12.4062L18.2855 12.3802L18.2924 12.3543L18.2993 12.3284L18.3062 12.3027L18.3131 12.277L18.32 12.2514L18.3268 12.226L18.3336 12.2005L18.3404 12.1752L18.3472 12.15L18.3539 12.1248L18.3606 12.0998L18.3673 12.0748L18.374 12.0499L18.3806 12.0251L18.3873 12.0004L18.3939 11.9757L18.4004 11.9512L18.407 11.9267L18.4135 11.9024L18.42 11.8781L18.4265 11.8539L18.433 11.8298L18.4394 11.8058L18.4458 11.7819L18.4522 11.7581L18.4585 11.7344L18.4649 11.7107L18.4712 11.6872L18.4774 11.6638L18.4837 11.6404L18.4899 11.6172L18.4961 11.594L18.5023 11.5709L18.5085 11.548L18.5146 11.5251L18.5207 11.5023L18.5268 11.4797L18.5328 11.4571L18.5388 11.4346L18.5448 11.4122L18.5508 11.3899L18.5568 11.3678L18.5627 11.3457C18.7407 10.6814 19.4229 10.2876 20.0922 10.4669Z" fill="white" stroke="#C1C1C1" stroke-width="1.5"/>
<circle cx="18.4561" cy="32.0281" r="0.5" transform="rotate(15 18.4561 32.0281)" fill="#1E1E1E"/>
<line x1="18.1558" y1="13.8303" x2="27.815" y2="16.4185" stroke="#C1C1C1"/>
<path d="M14.4434 9.75H22.4434C23.1373 9.75 23.6934 10.3059 23.6934 10.9928V11.0203V11.048V11.0759V11.104V11.1321V11.1605V11.189V11.2176V11.2464V11.2754V11.3045V11.3337V11.3631V11.3927V11.4224V11.4522V11.4822V11.5123V11.5426V11.573V11.6035V11.6343V11.6651V11.6961V11.7272V11.7585V11.7899V11.8214V11.8531V11.8849V11.9169V11.9489V11.9812V12.0135V12.046V12.0786V12.1114V12.1443V12.1773V12.2104V12.2437V12.2771V12.3106V12.3443V12.3781V12.412V12.446V12.4801V12.5144V12.5488V12.5833V12.618V12.6528V12.6876V12.7226V12.7578V12.793V12.8284V12.8638V12.8994V12.9351V12.971V13.0069V13.0429V13.0791V13.1154V13.1517V13.1882V13.2248V13.2615V13.2983V13.3353V13.3723V13.4094V13.4467V13.484V13.5215V13.559V13.5967V13.6344V13.6723V13.7102V13.7483V13.7864V13.8247V13.863V13.9015V13.94V13.9787V14.0174V14.0562V14.0952V14.1342V14.1733V14.2125V14.2518V14.2911V14.3306V14.3701V14.4098V14.4495V14.4893V14.5292V14.5692V14.6093V14.6494V14.6897V14.73V14.7704V14.8109V14.8514V14.8921V14.9328V14.9736V15.0144V15.0554V15.0964V15.1375V15.1787V15.2199V15.2612V15.3026V15.3441V15.3856V15.4272V15.4689V15.5106V15.5524V15.5943V15.6363V15.6783V15.7203V15.7625V15.8047V15.847V15.8893V15.9317V15.9741V16.0166V16.0592V16.1018V16.1445V16.1873V16.2301V16.2729V16.3158V16.3588V16.4018V16.4449V16.488V16.5312V16.5744V16.6177V16.661V16.7044V16.7479V16.7913V16.8349V16.8784V16.922V16.9657V17.0094V17.0531V17.0969V17.1408V17.1846V17.2286V17.2725V17.3165V17.3605V17.4046V17.4487V17.4928V17.537V17.5812V17.6255V17.6698V17.7141V17.7584V17.8028V17.8472V17.8917V17.9361V17.9806V18.0251V18.0697V18.1143V18.1589V18.2035V18.2482V18.2928V18.3376V18.3823V18.427V18.4718V18.5166V18.5614V18.6062V18.6511V18.6959V18.7408V18.7857V18.8306V18.8755V18.9205V18.9654V19.0104V19.0554V19.1003V19.1453V19.1903V19.2354V19.2804V19.3254V19.3705V19.4155V19.4606V19.5056V19.5507V19.5957V19.6408V19.6859V19.731V19.776V19.8211V19.8662V19.9112V19.9563V20.0014V20.0464V20.0915V20.1365V20.1816V20.2266V20.2717V20.3167V20.3617V20.4067V20.4517V20.4967V20.5417V20.5866V20.6316V20.6765V20.7215V20.7664V20.8113V20.8561V20.901V20.9458V20.9907V21.0355V21.0803V21.125V21.1698V21.2145V21.2592V21.3039V21.3485V21.3932V21.4378V21.4823V21.5269V21.5714V21.6159V21.6604V21.7048V21.7492V21.7936V21.838V21.8823V21.9265V21.9708V22.015V22.0592V22.1033V22.1474V22.1915V22.2355V22.2795V22.3235V22.3674V22.4113V22.4551V22.4989V22.5426V22.5863V22.63V22.6736V22.7172V22.7607V22.8042V22.8476V22.891V22.9343V22.9776V23.0208V23.064V23.1071V23.1502V23.1932V23.2362V23.2791V23.3219V23.3647V23.4075V23.4502V23.4928V23.5354V23.5779V23.6203V23.6627V23.705V23.7473V23.7895V23.8316V23.8737V23.9157V23.9576V23.9995V24.0413V24.0831V24.1247V24.1663V24.2079V24.2493V24.2907V24.332V24.3733V24.4144V24.4555V24.4966V24.5375V24.5784V24.6192V24.6599V24.7005V24.7411V24.7815V24.8219V24.8623V24.9025V24.9426V24.9827V25.0227V25.0626V25.1024V25.1421V25.1817V25.2213V25.2608V25.3001V25.3394V25.3786V25.4177V25.4567V25.4956V25.5345V25.5732V25.6118V25.6504V25.6888V25.7272V25.7654V25.8036V25.8416V25.8796V25.9174V25.9552V25.9928V26.0304V26.0678V26.1052V26.1424V26.1795V26.2166V26.2535V26.2903V26.327V26.3636V26.4001V26.4364V26.4727V26.5089V26.5449V26.5808V26.6166V26.6524V26.6879V26.7234V26.7588V26.794V26.8291V26.8641V26.899V26.9338V26.9684V27.0029V27.0373V27.0716V27.1057V27.1398V27.1737V27.2075V27.2411V27.2746V27.308V27.3413V27.3744V27.4074V27.4403V27.4731V27.5057V27.5382V27.5705V27.6027V27.6348V27.6668V27.6986V27.7303V27.7618V27.7932V27.8244V27.8556V27.8865V27.9174V27.9481V27.9786V28.0091V28.0393V28.0694V28.0994V28.1293V28.1589V28.1885V28.2179V28.2471V28.2762V28.3052V28.3339V28.3626V28.3911V28.4194V28.4476V28.4756V28.5035V28.5312V28.5588V28.5862V28.6134V28.6405V28.6675V28.6942V28.7208V28.7473V28.7736V28.7997V28.8257V28.8514V28.8771V28.9025V28.9278V28.953V28.9779V29.0027V29.0274V29.0518V29.0761V29.1002V29.1242V29.148V29.1716V29.195V29.2182V29.2413V29.2642V29.2869V29.3095V29.3318V29.354V29.376V29.3979V29.4195V29.441V29.4623V29.4834V29.5043V29.525V29.5456V29.5659V29.5861V29.6061V29.6259V29.6455V29.6649V29.6842V29.7032V29.7221V29.7407V29.7592V29.7775V29.7956V29.8134V29.8311V29.8486V29.8659V29.883V29.8999V29.9166V29.9331V29.9494V29.9655C23.6934 33.0036 21.4537 35.25 18.4434 35.25C15.433 35.25 13.1934 33.0036 13.1934 29.9655V29.9494V29.9331V29.9166V29.8999V29.883V29.8659V29.8486V29.8311V29.8134V29.7956V29.7775V29.7592V29.7407V29.7221V29.7032V29.6842V29.6649V29.6455V29.6259V29.6061V29.5861V29.5659V29.5456V29.525V29.5043V29.4834V29.4623V29.441V29.4195V29.3979V29.376V29.354V29.3318V29.3095V29.2869V29.2642V29.2413V29.2182V29.195V29.1716V29.148V29.1242V29.1002V29.0761V29.0518V29.0274V29.0027V28.9779V28.953V28.9278V28.9025V28.8771V28.8514V28.8257V28.7997V28.7736V28.7473V28.7208V28.6942V28.6675V28.6405V28.6134V28.5862V28.5588V28.5312V28.5035V28.4756V28.4476V28.4194V28.3911V28.3626V28.3339V28.3052V28.2762V28.2471V28.2179V28.1885V28.1589V28.1293V28.0994V28.0694V28.0393V28.0091V27.9786V27.9481V27.9174V27.8865V27.8556V27.8244V27.7932V27.7618V27.7303V27.6986V27.6668V27.6348V27.6027V27.5705V27.5382V27.5057V27.4731V27.4403V27.4074V27.3744V27.3413V27.308V27.2746V27.2411V27.2075V27.1737V27.1398V27.1057V27.0716V27.0373V27.0029V26.9684V26.9338V26.899V26.8641V26.8291V26.794V26.7588V26.7234V26.6879V26.6524V26.6166V26.5808V26.5449V26.5089V26.4727V26.4364V26.4001V26.3636V26.327V26.2903V26.2535V26.2166V26.1795V26.1424V26.1052V26.0678V26.0304V25.9928V25.9552V25.9174V25.8796V25.8416V25.8036V25.7654V25.7272V25.6888V25.6504V25.6118V25.5732V25.5345V25.4956V25.4567V25.4177V25.3786V25.3394V25.3001V25.2608V25.2213V25.1817V25.1421V25.1024V25.0626V25.0227V24.9827V24.9426V24.9025V24.8623V24.8219V24.7815V24.7411V24.7005V24.6599V24.6192V24.5784V24.5375V24.4966V24.4555V24.4144V24.3733V24.332V24.2907V24.2493V24.2079V24.1663V24.1247V24.0831V24.0413V23.9995V23.9576V23.9157V23.8737V23.8316V23.7895V23.7473V23.705V23.6627V23.6203V23.5779V23.5354V23.4928V23.4502V23.4075V23.3647V23.3219V23.2791V23.2362V23.1932V23.1502V23.1071V23.064V23.0208V22.9776V22.9343V22.891V22.8476V22.8042V22.7607V22.7172V22.6736V22.63V22.5863V22.5426V22.4989V22.4551V22.4113V22.3674V22.3235V22.2795V22.2355V22.1915V22.1474V22.1033V22.0592V22.015V21.9708V21.9265V21.8823V21.838V21.7936V21.7492V21.7048V21.6604V21.6159V21.5714V21.5269V21.4823V21.4378V21.3932V21.3485V21.3039V21.2592V21.2145V21.1698V21.125V21.0803V21.0355V20.9907V20.9458V20.901V20.8561V20.8113V20.7664V20.7215V20.6765V20.6316V20.5866V20.5417V20.4967V20.4517V20.4067V20.3617V20.3167V20.2717V20.2266V20.1816V20.1365V20.0915V20.0464V20.0014V19.9563V19.9112V19.8662V19.8211V19.776V19.731V19.6859V19.6408V19.5957V19.5507V19.5056V19.4606V19.4155V19.3705V19.3254V19.2804V19.2354V19.1904V19.1453V19.1003V19.0554V19.0104V18.9654V18.9205V18.8755V18.8306V18.7857V18.7408V18.6959V18.6511V18.6062V18.5614V18.5166V18.4718V18.427V18.3823V18.3376V18.2929V18.2482V18.2035V18.1589V18.1143V18.0697V18.0251V17.9806V17.9361V17.8917V17.8472V17.8028V17.7584V17.7141V17.6698V17.6255V17.5812V17.537V17.4928V17.4487V17.4046V17.3605V17.3165V17.2725V17.2286V17.1846V17.1408V17.0969V17.0531V17.0094V16.9657V16.922V16.8784V16.8349V16.7913V16.7479V16.7044V16.661V16.6177V16.5744V16.5312V16.488V16.4449V16.4018V16.3588V16.3158V16.2729V16.2301V16.1873V16.1445V16.1018V16.0592V16.0166V15.9741V15.9317V15.8893V15.847V15.8047V15.7625V15.7203V15.6783V15.6363V15.5943V15.5524V15.5106V15.4689V15.4272V15.3856V15.3441V15.3026V15.2612V15.2199V15.1787V15.1375V15.0964V15.0554V15.0144V14.9736V14.9328V14.8921V14.8514V14.8109V14.7704V14.73V14.6897V14.6494V14.6093V14.5692V14.5292V14.4893V14.4495V14.4098V14.3701V14.3306V14.2911V14.2518V14.2125V14.1733V14.1342V14.0952V14.0562V14.0174V13.9787V13.94V13.9015V13.863V13.8247V13.7864V13.7483V13.7102V13.6723V13.6344V13.5967V13.559V13.5215V13.484V13.4467V13.4094V13.3723V13.3353V13.2983V13.2615V13.2248V13.1882V13.1517V13.1154V13.0791V13.0429V13.0069V12.971V12.9351V12.8994V12.8638V12.8284V12.793V12.7578V12.7226V12.6876V12.6528V12.618V12.5833V12.5488V12.5144V12.4801V12.446V12.412V12.3781V12.3443V12.3106V12.2771V12.2437V12.2104V12.1773V12.1443V12.1114V12.0786V12.046V12.0135V11.9812V11.9489V11.9169V11.8849V11.8531V11.8214V11.7899V11.7585V11.7272V11.6961V11.6651V11.6343V11.6036V11.573V11.5426V11.5123V11.4822V11.4522V11.4224V11.3927V11.3631V11.3337V11.3045V11.2754V11.2464V11.2176V11.189V11.1605V11.1321V11.104V11.0759V11.048V11.0203V10.9928C13.1934 10.3059 13.7495 9.75 14.4434 9.75Z" fill="white" stroke="#C1C1C1" stroke-width="1.5"/>
<line x1="13.4434" y1="13.5" x2="23.4434" y2="13.5" stroke="#C1C1C1"/>
</svg>
