<?xml version="1.0" encoding="utf-8"?>
<!-- Generator: Adobe Illustrator 16.0.4, SVG Export Plug-In . SVG Version: 6.00 Build 0)  -->
<!DOCTYPE svg PUBLIC "-//W3C//DTD SVG 1.1//EN" "http://www.w3.org/Graphics/SVG/1.1/DTD/svg11.dtd">
<svg version="1.1" id="Layer_1" xmlns="http://www.w3.org/2000/svg" xmlns:xlink="http://www.w3.org/1999/xlink" x="0px" y="0px"
	 width="90.039px" height="36.304px" viewBox="0 0 90.039 36.304" enable-background="new 0 0 90.039 36.304" xml:space="preserve">
<g>
	<path fill="#1E1E1E" d="M0,1.462c0-0.503,0.404-0.958,0.907-0.958h11.294c9.732,0,17.698,7.916,17.698,17.597
		c0,9.783-7.966,17.7-17.698,17.7H0.907C0.404,35.8,0,35.345,0,34.841V1.462z M11.396,32.321c8.269,0,14.269-5.9,14.269-14.22
		c0-8.269-6-14.168-14.269-14.168H3.832v28.389H11.396z"/>
</g>
<g>
	<path fill="#1E1E1E" d="M61.302,0.907C61.302,0.403,61.756,0,62.259,0h1.261l22.738,28.337c0.053,0,0.053,0,0.104,0V1.462
		c0-0.503,0.402-0.958,0.955-0.958h1.766c0.505,0,0.957,0.454,0.957,0.958v33.934c0,0.504-0.454,0.908-0.957,0.908h-0.908
		L65.031,7.413H64.98v27.428c0,0.504-0.402,0.959-0.955,0.959H62.26c-0.502,0-0.956-0.455-0.956-0.959V0.907H61.302z"/>
</g>
<line fill="none" stroke="#1E1E1E" stroke-miterlimit="10" x1="37.476" y1="11.788" x2="52.033" y2="26.345"/>
<line fill="none" stroke="#1E1E1E" stroke-miterlimit="10" x1="37.476" y1="26.345" x2="52.033" y2="11.788"/>
</svg>
