<svg width="24" height="16" viewBox="0 0 24 16" fill="none" xmlns="http://www.w3.org/2000/svg">
<path d="M11.9998 16C7.89477 16 3.98377 13.678 0.374773 9.098C-0.126227 8.462 -0.126227 7.538 0.374773 6.903C3.98377 2.322 7.89477 0 11.9998 0C16.1048 0 20.0168 2.322 23.6248 6.902C24.1248 7.539 24.1248 8.462 23.6258 9.098C20.0168 13.678 16.1048 16 11.9998 16ZM1.16077 7.521C0.945773 7.794 0.945773 8.207 1.16077 8.48C4.56977 12.806 8.21677 15 11.9998 15C15.7828 15 19.4298 12.806 22.8398 8.479C23.0538 8.206 23.0538 7.794 22.8388 7.521C19.4298 3.194 15.7828 1 11.9998 1C8.21677 1 4.56977 3.194 1.16077 7.521Z" fill="#C1C1C1"/>
<path d="M12 12C9.794 12 8 10.206 8 8C8 5.794 9.794 4 12 4C14.206 4 16 5.794 16 8C16 10.206 14.206 12 12 12ZM12 5C10.346 5 9 6.346 9 8C9 9.654 10.346 11 12 11C13.654 11 15 9.654 15 8C15 6.346 13.654 5 12 5Z" fill="#C1C1C1"/>
</svg>
