<svg width="24" height="22" viewBox="0 0 24 22" fill="none" xmlns="http://www.w3.org/2000/svg">
<path d="M11.9998 19C7.89477 19 3.98377 16.678 0.374773 12.098C-0.126227 11.462 -0.126227 10.538 0.374773 9.903C3.98377 5.322 7.89477 3 11.9998 3C16.1048 3 20.0168 5.322 23.6248 9.902C24.1248 10.539 24.1248 11.462 23.6258 12.098C20.0168 16.678 16.1048 19 11.9998 19ZM1.16077 10.521C0.945773 10.794 0.945773 11.207 1.16077 11.48C4.56977 15.806 8.21677 18 11.9998 18C15.7828 18 19.4298 15.806 22.8398 11.479C23.0538 11.206 23.0538 10.794 22.8388 10.521C19.4298 6.194 15.7828 4 11.9998 4C8.21677 4 4.56977 6.194 1.16077 10.521Z" fill="#C1C1C1"/>
<path d="M12 15C9.794 15 8 13.206 8 11C8 8.794 9.794 7 12 7C14.206 7 16 8.794 16 11C16 13.206 14.206 15 12 15ZM12 8C10.346 8 9 9.346 9 11C9 12.654 10.346 14 12 14C13.654 14 15 12.654 15 11C15 9.346 13.654 8 12 8Z" fill="#C1C1C1"/>
<path d="M1.64648 20.6465L21.6465 1.64649" stroke="#C1C1C1"/>
</svg>
