<svg width="122" height="193" viewBox="0 0 122 193" fill="none" xmlns="http://www.w3.org/2000/svg">
<line x1="0.646447" y1="51.6464" x2="120.855" y2="-68.5617" stroke="#E5E5E5"/>
<line x1="0.646447" y1="61.6464" x2="120.855" y2="-58.5617" stroke="#E5E5E5"/>
<line x1="0.646447" y1="71.6464" x2="120.855" y2="-48.5617" stroke="#E5E5E5"/>
<line x1="0.646447" y1="81.6464" x2="120.855" y2="-38.5617" stroke="#E5E5E5"/>
<line x1="0.646447" y1="91.6464" x2="120.855" y2="-28.5617" stroke="#E5E5E5"/>
<line x1="0.646447" y1="101.646" x2="120.855" y2="-18.5617" stroke="#E5E5E5"/>
<line x1="0.646447" y1="111.646" x2="120.855" y2="-8.5617" stroke="#E5E5E5"/>
<line x1="0.646447" y1="121.646" x2="120.855" y2="1.4383" stroke="#E5E5E5"/>
<line x1="0.646447" y1="131.646" x2="120.855" y2="11.4383" stroke="#E5E5E5"/>
<line x1="0.646447" y1="141.646" x2="120.855" y2="21.4383" stroke="#E5E5E5"/>
<line x1="0.646447" y1="151.646" x2="120.855" y2="31.4383" stroke="#E5E5E5"/>
<line x1="0.646447" y1="161.646" x2="120.855" y2="41.4383" stroke="#E5E5E5"/>
<line x1="0.646447" y1="171.646" x2="120.855" y2="51.4383" stroke="#E5E5E5"/>
<line x1="0.646447" y1="181.646" x2="120.855" y2="61.4383" stroke="#E5E5E5"/>
<line x1="0.646447" y1="191.646" x2="120.855" y2="71.4383" stroke="#E5E5E5"/>
<line x1="10.8546" y1="191.438" x2="120.855" y2="81.4384" stroke="#E5E5E5"/>
<line x1="19.8546" y1="192.438" x2="120.855" y2="91.4384" stroke="#E5E5E5"/>
<line x1="29.8546" y1="192.438" x2="120.855" y2="101.438" stroke="#E5E5E5"/>
<line x1="40.8546" y1="191.438" x2="120.855" y2="111.438" stroke="#E5E5E5"/>
<line x1="49.8546" y1="192.438" x2="120.855" y2="121.438" stroke="#E5E5E5"/>
<line x1="60.8546" y1="191.438" x2="120.855" y2="131.438" stroke="#E5E5E5"/>
<line x1="70.8546" y1="191.438" x2="120.855" y2="141.438" stroke="#E5E5E5"/>
<line x1="80.8546" y1="191.438" x2="120.855" y2="151.438" stroke="#E5E5E5"/>
<path d="M91 192L120.855 161.438" stroke="#E5E5E5"/>
<line x1="100.855" y1="191.438" x2="120.855" y2="171.438" stroke="#E5E5E5"/>
<line x1="110.855" y1="191.438" x2="120.855" y2="181.438" stroke="#E5E5E5"/>
<line x1="0.646447" y1="11.6464" x2="88.6464" y2="-76.3536" stroke="#E5E5E5"/>
<line x1="0.646447" y1="21.6464" x2="98.6464" y2="-76.3535" stroke="#E5E5E5"/>
<line x1="0.646447" y1="31.6464" x2="108.646" y2="-76.3535" stroke="#E5E5E5"/>
<line x1="0.646447" y1="41.6464" x2="118.646" y2="-76.3535" stroke="#E5E5E5"/>
<line x1="0.646447" y1="1.64645" x2="78.6464" y2="-76.3536" stroke="#E5E5E5"/>
</svg>
