<svg width="154" height="154" viewBox="0 0 154 154" fill="none" xmlns="http://www.w3.org/2000/svg">
<path fill-rule="evenodd" clip-rule="evenodd" d="M77.1543 0C96.1114 0.0371865 113.461 6.92494 126.858 18.3194L98.8435 51.5364C93.014 46.536 85.4369 43.5149 77.1543 43.5149L77.1543 0Z" fill="#EE5C4C"/>
<path fill-rule="evenodd" clip-rule="evenodd" d="M98.8435 51.5363L126.858 18.3193C140.33 29.7772 149.807 45.7921 152.904 63.9808L110.051 71.4508C108.761 63.5266 104.677 56.5404 98.8435 51.5363Z" fill="#F0C048"/>
<path fill-rule="evenodd" clip-rule="evenodd" d="M143.558 115.743C150.196 104.363 154 91.1258 154 77.0004C154 72.563 153.625 68.2134 152.904 63.9814L110.051 71.4514C110.336 73.2073 110.485 75.0093 110.485 76.846C110.485 83.1173 108.753 88.9841 105.741 93.9941L143.558 115.743Z" fill="#90D8C0"/>
<path fill-rule="evenodd" clip-rule="evenodd" d="M103.254 149.409C120.3 143.227 134.543 131.197 143.558 115.743L105.741 93.9941C101.79 100.566 95.6369 105.664 88.3022 108.267L103.254 149.409Z" fill="#31C0C0"/>
<path fill-rule="evenodd" clip-rule="evenodd" d="M77.0001 154C67.7783 154 58.9353 152.379 50.7402 149.406L65.8007 108.192C69.3443 109.476 73.1676 110.176 77.1544 110.176C81.0641 110.176 84.8167 109.503 88.3024 108.266L103.254 149.408C95.0609 152.379 86.2197 154 77.0001 154Z" fill="#90C0F0"/>
<path fill-rule="evenodd" clip-rule="evenodd" d="M10.4419 115.742C19.4557 131.194 33.6963 143.224 50.7402 149.406L65.8007 108.193C58.5039 105.549 52.393 100.431 48.4823 93.8516L10.4419 115.742Z" fill="#1848C0"/>
<path fill-rule="evenodd" clip-rule="evenodd" d="M1.09016 64.0156C0.37331 68.2368 0 72.5749 0 77.0002C0 91.1253 3.80335 104.362 10.4419 115.742L48.4823 93.8516L48.4823 93.8516C45.5231 88.873 43.8236 83.0579 43.8236 76.8458C43.8236 75.0562 43.9647 73.2995 44.2363 71.5862L1.09016 64.0156Z" fill="#4800C0"/>
<path fill-rule="evenodd" clip-rule="evenodd" d="M2.2793 58.3287H2.27936C6.2534 42.3733 15.2041 28.3862 27.3878 18.1112L55.4324 51.5647C61.2663 46.5475 68.8561 43.515 77.1543 43.515L77.1543 0.000151346L77 0C40.913 0 10.6242 24.8248 2.2793 58.3287Z" fill="#F3B4B6"/>
<path fill-rule="evenodd" clip-rule="evenodd" d="M1.09033 64.0155C4.20037 45.7021 13.7767 29.5902 27.3879 18.1113L55.4325 51.5648C49.5831 56.5953 45.4991 63.6211 44.2365 71.5861L1.09033 64.0155Z" fill="#303030"/>
</svg>
