<svg width="25" height="25" viewBox="0 0 25 25" fill="none" xmlns="http://www.w3.org/2000/svg">
<path d="M10.238 17.83C10.73 17.83 11.03 17.686 11.138 17.398C11.246 17.098 11.3 16.708 11.3 16.228V13.24C11.3 13.024 11.306 12.778 11.318 12.502C11.33 12.214 11.348 11.938 11.372 11.674C11.18 11.686 10.952 11.698 10.688 11.71C10.436 11.71 10.244 11.716 10.112 11.728V10.36C10.94 10.36 11.576 10.3 12.02 10.18C12.476 10.06 12.764 9.94 12.884 9.82H13.856V16.102C13.856 16.27 13.85 16.51 13.838 16.822C13.826 17.122 13.808 17.41 13.784 17.686C13.976 17.662 14.186 17.65 14.414 17.65C14.654 17.638 14.834 17.632 14.954 17.632V19H10.238V17.83ZM12.488 8.398C12.08 8.398 11.744 8.254 11.48 7.966C11.216 7.678 11.084 7.33 11.084 6.922C11.084 6.514 11.222 6.166 11.498 5.878C11.774 5.59 12.098 5.446 12.47 5.446C12.854 5.446 13.172 5.59 13.424 5.878C13.688 6.166 13.82 6.514 13.82 6.922C13.82 7.33 13.7 7.678 13.46 7.966C13.22 8.254 12.896 8.398 12.488 8.398Z" fill="#434343"/>
<circle cx="12.5" cy="12.5" r="12" stroke="#434343"/>
</svg>
