<svg width="25" height="25" viewBox="0 0 25 25" fill="none" xmlns="http://www.w3.org/2000/svg">
<path d="M12.64 8.02C12.1867 8.02 11.8133 7.86667 11.52 7.56C11.2267 7.24 11.08 6.85333 11.08 6.4C11.08 5.94667 11.2333 5.56 11.54 5.24C11.8467 4.90667 12.2067 4.74 12.62 4.74C13.0467 4.74 13.4 4.9 13.68 5.22C13.9733 5.54 14.12 5.93333 14.12 6.4C14.12 6.86667 13.98 7.25333 13.7 7.56C13.4333 7.86667 13.08 8.02 12.64 8.02ZM9.82 18.7C10.3267 18.7 10.6467 18.56 10.78 18.28C10.9267 18 11 17.5467 11 16.92V13.6C11 12.9733 11.0267 12.3933 11.08 11.86L9.68 11.92V10.4C10.52 10.4 11.2 10.34 11.72 10.22C12.24 10.1 12.5867 9.96 12.76 9.8H13.84V16.78C13.84 17.42 13.8133 18.0067 13.76 18.54C14.1867 18.5 14.62 18.48 15.06 18.48V20H9.82V18.7Z" fill="#00BBFF"/>
<circle cx="12.5" cy="12.5" r="12" stroke="#00BBFF"/>
</svg>
