<svg width="22" height="22" viewBox="0 0 22 22" fill="none" xmlns="http://www.w3.org/2000/svg">
<path d="M1.47165 12.9241C-0.490554 14.8863 -0.490545 18.0703 1.47165 20.0325C3.43387 21.9947 6.61786 21.9947 8.58005 20.0325L12.5292 16.0834C14.4914 14.1212 14.4914 10.9372 12.5292 8.97497C12.4776 8.92192 12.416 8.87965 12.3479 8.85062C12.2798 8.82159 12.2067 8.80638 12.1327 8.80586C12.0586 8.80535 11.9853 8.81954 11.9168 8.84762C11.8483 8.8757 11.7861 8.91712 11.7338 8.96945C11.6815 9.02178 11.6401 9.08398 11.612 9.15245C11.5839 9.22091 11.5697 9.29427 11.5702 9.36827C11.5708 9.44227 11.586 9.51545 11.615 9.58352C11.644 9.65159 11.6863 9.7132 11.7394 9.76479C13.2776 11.3031 13.2777 13.7553 11.7393 15.2935L7.79023 19.2427C6.25195 20.781 3.79978 20.781 2.26147 19.2427C0.723201 17.7044 0.723172 15.2522 2.26147 13.7139L6.21059 9.76479C6.26366 9.7132 6.30594 9.65158 6.33499 9.5835C6.36404 9.51542 6.37927 9.44227 6.37979 9.36825C6.38031 9.29424 6.36612 9.22086 6.33804 9.15238C6.30996 9.0839 6.26854 9.02168 6.21621 8.96935C6.16387 8.91701 6.10166 8.8756 6.03318 8.84752C5.9647 8.81944 5.89132 8.80525 5.81731 8.80578C5.7433 8.8063 5.67013 8.82152 5.60205 8.85057C5.53398 8.87961 5.47235 8.9219 5.42076 8.97497L1.47165 12.9241ZM8.97497 5.42077C7.01277 7.38297 7.01277 10.567 8.97497 12.5292C9.02658 12.5822 9.0882 12.6244 9.15626 12.6534C9.22432 12.6824 9.29746 12.6975 9.37143 12.698C9.4454 12.6985 9.51873 12.6843 9.58717 12.6562C9.6556 12.6282 9.71778 12.5868 9.77009 12.5345C9.82239 12.4821 9.86379 12.42 9.89187 12.3515C9.91995 12.2831 9.93416 12.2098 9.93366 12.1358C9.93317 12.0618 9.91799 11.9887 9.889 11.9206C9.86001 11.8526 9.81779 11.791 9.7648 11.7393C8.22651 10.2011 8.22649 7.74889 9.76479 6.21059L13.7139 2.26147C15.2522 0.723173 17.7044 0.723193 19.2427 2.26147C20.781 3.79977 20.781 6.25196 19.2427 7.79024L15.2936 11.7394C15.2405 11.791 15.1981 11.8526 15.1691 11.9207C15.14 11.9887 15.1248 12.0619 15.1242 12.136C15.1237 12.21 15.1379 12.2834 15.1659 12.3519C15.194 12.4204 15.2354 12.4826 15.2878 12.535C15.3401 12.5873 15.4024 12.6287 15.4709 12.6568C15.5394 12.6849 15.6128 12.6991 15.6868 12.6985C15.7608 12.698 15.834 12.6827 15.9021 12.6537C15.9702 12.6246 16.0318 12.5823 16.0834 12.5292L20.0325 8.58005C21.9947 6.61786 21.9947 3.43387 20.0325 1.47165C18.0703 -0.490553 14.8863 -0.490547 12.9241 1.47165L8.97497 5.42077Z" fill="#434343"/>
</svg>
