<svg xmlns="http://www.w3.org/2000/svg" xmlns:xlink="http://www.w3.org/1999/xlink" version="1.1" x="0px" y="0px" viewBox="0 0 24 30" style="enable-background:new 0 0 24 24;" xml:space="preserve"><g><path d="M18.649,9.865h-2.951V6.713c0-0.028-0.003-0.054-0.006-0.054c-0.029-1.998-1.677-3.622-3.674-3.622   c-1.99,0-3.635,1.615-3.674,3.604C8.338,6.663,8.335,6.688,8.335,6.713v3.152H5.351c-0.184,0-0.333,0.149-0.333,0.334v10.43   c0,0.185,0.15,0.334,0.333,0.334h13.298c0.184,0,0.334-0.149,0.334-0.334v-10.43C18.983,10.015,18.833,9.865,18.649,9.865z    M9.002,6.787c0.006-0.026,0.009-0.051,0.009-0.074c0-1.658,1.349-3.007,3.006-3.007s3.006,1.349,3.006,3.007   c0,0.023,0.003,0.048,0.006,0.051v3.102H9.004L9.002,6.787z M18.314,10.533v9.762H5.686v-9.762H18.314z"/><path d="M12.016,17.15c0.184,0,0.333-0.149,0.333-0.333l0.001-2.806c0-0.184-0.149-0.333-0.333-0.333s-0.333,0.149-0.333,0.333   v2.806C11.684,17.001,11.832,17.15,12.016,17.15z"/></g><text x="0" y="39" fill="#000000" font-size="5px" font-weight="bold" font-family="'Helvetica Neue', Helvetica, Arial-Unicode, Arial, Sans-serif">Created by Storm Icons</text><text x="0" y="44" fill="#000000" font-size="5px" font-weight="bold" font-family="'Helvetica Neue', Helvetica, Arial-Unicode, Arial, Sans-serif">from the Noun Project</text></svg>