<svg width="636" height="87" viewBox="0 0 636 87" fill="none" xmlns="http://www.w3.org/2000/svg">
<path d="M591.866 71.876L591.495 69.6877C591.39 69.057 591.254 68.0711 591.151 67.3882H591.111C591.003 68.0762 590.851 69.0901 590.74 69.6932L590.341 71.8764H591.866V71.876ZM590.143 73.302L589.661 75.7314H587.881L590.101 65.626H592.282L594.298 75.7314H592.51L592.038 73.302H590.143Z" fill="#BFBFBF"/>
<path d="M598.348 71.217C598.348 71.0824 598.348 70.925 598.322 70.7806C598.251 70.282 597.985 69.8325 597.556 69.8325C596.822 69.8325 596.552 70.8876 596.552 72.1218C596.552 73.5398 596.937 74.3462 597.531 74.3462C597.803 74.3462 598.116 74.2078 598.286 73.6124C598.327 73.494 598.348 73.3352 598.348 73.1498V71.217V71.217ZM600.175 65.3574V73.6353C600.175 74.291 600.208 75.0983 600.235 75.7294H598.658L598.555 74.8873H598.517C598.253 75.4068 597.676 75.8482 596.987 75.8482C595.476 75.8482 594.727 74.1862 594.727 72.0883C594.727 69.532 595.844 68.2885 597.061 68.2885C597.698 68.2885 598.11 68.5991 598.318 69.0486H598.348V65.3583H600.175V65.3574Z" fill="#BFBFBF"/>
<path d="M603.979 74.4515C604.676 74.4515 604.848 73.1413 604.848 72.0569C604.848 71.026 604.676 69.6827 603.948 69.6827C603.177 69.6827 603.016 71.026 603.016 72.0569C603.016 73.3018 603.219 74.4515 603.963 74.4515H603.979ZM603.944 75.8478C602.261 75.8478 601.205 74.5007 601.205 72.0896C601.205 69.4578 602.561 68.2881 603.987 68.2881C605.647 68.2881 606.688 69.7006 606.688 72.0467C606.688 75.0614 605.058 75.8478 603.959 75.8478H603.944Z" fill="#BFBFBF"/>
<path d="M609.536 73.115C609.536 73.2979 609.569 73.4685 609.608 73.5835C609.791 74.1955 610.101 74.3462 610.35 74.3462C611.057 74.3462 611.342 73.4536 611.342 72.0267C611.342 70.7276 611.041 69.8325 610.342 69.8325C609.996 69.8325 609.704 70.2077 609.604 70.6105C609.569 70.7369 609.536 70.9343 609.536 71.0701V73.115ZM607.709 65.3574H609.535V69.1721H609.565C609.925 68.6093 610.404 68.2876 611.099 68.2876C612.475 68.2876 613.167 69.8482 613.167 71.8884C613.167 74.4672 612.136 75.8474 610.799 75.8474C610.162 75.8474 609.738 75.5655 609.355 74.8525H609.317L609.215 75.7285H607.647C607.674 75.1216 607.708 74.2902 607.708 73.6344V65.3574H607.709Z" fill="#BFBFBF"/>
<path d="M617.545 71.3698C617.554 70.3415 617.252 69.6212 616.672 69.6212C616.011 69.6212 615.73 70.5855 615.71 71.3698H617.545ZM615.704 72.6571C615.725 73.9813 616.423 74.4125 617.291 74.4125C617.84 74.4125 618.311 74.2907 618.66 74.1604L618.906 75.4701C618.421 75.6781 617.673 75.8088 616.956 75.8088C614.996 75.8088 613.926 74.4736 613.926 72.1924C613.926 69.7452 615.167 68.2754 616.789 68.2754C618.356 68.2754 619.224 69.575 619.224 71.6954C619.224 72.1813 619.204 72.4546 619.172 72.6677L615.704 72.6571Z" fill="#BFBFBF"/>
<path d="M607.541 32.3398H619.225V60.2229L607.541 32.3398Z" fill="#BFBFBF"/>
<path d="M599.31 32.3398H587.62V60.2229L599.31 32.3398Z" fill="#BFBFBF"/>
<path d="M598.318 54.6125L603.427 42.6133L610.87 60.2212H605.993L603.767 54.6125H598.318Z" fill="#BFBFBF"/>
<path d="M45.4612 44.1141C45.5404 52.5711 52.9037 55.3854 52.9855 55.4214C52.9233 55.6201 51.8087 59.4322 49.106 63.37C46.7695 66.7742 44.3445 70.1666 40.5242 70.2371C36.7708 70.3058 35.5638 68.0178 31.2722 68.0178C26.982 68.0178 25.6408 70.1662 22.0875 70.3058C18.4001 70.4446 15.5923 66.624 13.2362 63.2325C8.42181 56.2941 4.74291 43.6264 9.68288 35.0756C12.1369 30.8293 16.5226 28.1402 21.2829 28.0715C24.9039 28.0027 28.3218 30.5 30.5348 30.5C32.747 30.5 36.9006 27.4968 41.2667 27.9378C43.0949 28.0137 48.2256 28.6737 51.52 33.4811C51.2544 33.6445 45.3973 37.0433 45.4612 44.1141ZM38.4065 23.3468C40.3641 20.9845 41.6814 17.6961 41.3225 14.4238C38.5006 14.5371 35.0882 16.2985 33.0646 18.6591C31.2505 20.7498 29.662 24.0963 30.0908 27.3037C33.2358 27.5464 36.4489 25.7108 38.4065 23.3468Z" fill="#BFBFBF"/>
<path d="M522.817 64.1232C514.84 64.1232 508.367 57.6801 508.367 49.7265C508.367 41.7584 514.84 35.32 522.817 35.32C530.802 35.32 537.267 41.7584 537.267 49.7265C537.267 57.6801 530.802 64.1232 522.817 64.1232ZM522.817 28.127C510.858 28.127 501.161 37.7965 501.161 49.7269C501.161 61.648 510.858 71.3146 522.817 71.3146C534.782 71.3146 544.494 61.648 544.494 49.7269C544.494 37.7965 534.781 28.127 522.817 28.127Z" fill="#BFBFBF"/>
<path d="M522.817 42.3252C518.718 42.3252 515.396 45.628 515.396 49.7266C515.396 53.8121 518.718 57.1251 522.817 57.1251C526.921 57.1251 530.249 53.8121 530.249 49.7266C530.249 45.628 526.92 42.3252 522.817 42.3252Z" fill="#BFBFBF"/>
<path d="M462.248 40.1472H450.139L450.886 38.0654H462.248V40.1472Z" fill="#BFBFBF"/>
<path d="M429.968 38.0653L441.211 38.0645L441.947 40.1509C441.952 40.1483 429.972 40.1534 429.972 40.1509C429.972 40.1483 429.965 38.0653 429.968 38.0653Z" fill="#BFBFBF"/>
<path d="M421.04 38.0653C422.893 38.2431 424.504 38.9014 425.876 40.1505C425.876 40.1505 405.498 40.1518 405.498 40.1505C405.498 40.1479 405.498 38.0645 405.498 38.0645L421.04 38.0653Z" fill="#BFBFBF"/>
<path d="M403.663 38.0654H389.507V40.1464H403.663V38.0654Z" fill="#BFBFBF"/>
<path d="M462.248 44.0518H448.751C448.751 44.0518 449.487 41.9823 449.484 41.9814H462.248V44.0518Z" fill="#BFBFBF"/>
<path d="M443.338 44.0542H429.968V41.9805H442.606L443.338 44.0542Z" fill="#BFBFBF"/>
<path d="M427.462 41.9805C427.73 42.6646 428.049 43.2491 428.049 44.0512H405.501V41.9805H427.462Z" fill="#BFBFBF"/>
<path d="M403.662 41.9805H389.506V44.0512H403.662V41.9805Z" fill="#BFBFBF"/>
<path d="M447.371 47.9672L448.112 45.8867L458.246 45.8893V47.9626L447.371 47.9672Z" fill="#BFBFBF"/>
<path d="M443.988 45.8857L444.726 47.9671H433.955V45.8857H443.988Z" fill="#BFBFBF"/>
<path d="M428.228 45.8848C428.228 46.5991 428.138 47.3422 427.929 47.9665H421.756V45.8848H428.228Z" fill="#BFBFBF"/>
<path d="M399.536 45.8955H393.451V47.9662H399.536V45.8955Z" fill="#BFBFBF"/>
<path d="M415.672 45.8848H409.597V47.9661H415.672V45.8848Z" fill="#BFBFBF"/>
<path d="M439.938 50.2135C439.938 50.2135 439.94 51.7893 439.938 51.7923H433.955V49.7207H445.357L446.065 51.6514C446.068 51.6531 446.748 49.7156 446.75 49.7207H458.242V51.7923H452.287C452.287 51.7893 452.284 50.2135 452.284 50.2135L451.733 51.7923L440.488 51.7893L439.938 50.2135Z" fill="#BFBFBF"/>
<path d="M409.597 49.7204H427.035V49.7188C426.653 50.4127 425.961 51.2568 425.305 51.792C425.305 51.792 409.597 51.795 409.597 51.792C409.597 51.7891 409.597 49.7234 409.597 49.7204Z" fill="#BFBFBF"/>
<path d="M399.536 49.7197H393.451V51.7913H399.536V49.7197Z" fill="#BFBFBF"/>
<path d="M458.242 53.626H452.288V55.6971H458.242V53.626Z" fill="#BFBFBF"/>
<path d="M439.938 53.626H433.955V55.6971C433.951 55.6963 439.94 55.6988 439.94 55.6971C439.94 55.6959 439.946 53.626 439.938 53.626Z" fill="#BFBFBF"/>
<path d="M451.084 53.626C451.057 53.6222 450.387 55.6963 450.359 55.6971L441.877 55.701C441.87 55.698 441.132 53.6226 441.131 53.626H451.084Z" fill="#BFBFBF"/>
<path d="M409.596 53.625H425.275C425.99 54.2205 426.638 54.9534 427.144 55.697C427.173 55.6961 409.597 55.6987 409.597 55.697C409.597 55.6957 409.596 53.6263 409.596 53.625Z" fill="#BFBFBF"/>
<path d="M399.535 55.696V53.624H393.461C393.461 53.624 393.463 55.6952 393.461 55.6952C393.461 55.6952 399.532 55.696 399.535 55.696Z" fill="#BFBFBF"/>
<path d="M458.241 57.5303H452.288V59.6019H458.241V57.5303Z" fill="#BFBFBF"/>
<path d="M439.938 57.5303H433.955V59.6014H439.938V57.5303Z" fill="#BFBFBF"/>
<path d="M448.966 59.6116C448.968 59.6019 449.701 57.5282 449.712 57.5303H442.502C442.489 57.529 443.241 59.6019 443.241 59.6019C443.241 59.6019 448.965 59.6205 448.966 59.6116Z" fill="#BFBFBF"/>
<path d="M409.597 59.6019C409.597 59.6104 409.596 57.5307 409.597 57.5303H415.761C415.761 57.5303 415.767 59.6023 415.761 59.6023C415.755 59.6023 409.597 59.5993 409.597 59.6019Z" fill="#BFBFBF"/>
<path d="M428.009 57.5303C428.306 58.1546 428.337 58.8978 428.396 59.6112H421.865V57.5303H428.009Z" fill="#BFBFBF"/>
<path d="M399.536 57.5303H393.461V59.601H399.536V57.5303Z" fill="#BFBFBF"/>
<path d="M462.248 61.3545H452.288V63.4269H462.248V61.3545Z" fill="#BFBFBF"/>
<path d="M439.938 61.3545H429.968V63.4269H439.938V61.3545Z" fill="#BFBFBF"/>
<path d="M447.627 63.4269H444.586L443.856 61.3545H448.33L447.627 63.4269Z" fill="#BFBFBF"/>
<path d="M389.505 61.3545V63.4261H403.652C403.658 63.4291 403.645 61.3562 403.652 61.3562C403.658 61.3562 389.489 61.3545 389.505 61.3545Z" fill="#BFBFBF"/>
<path d="M428.138 61.3545C427.988 62.0382 427.852 62.8705 427.352 63.4269L427.165 63.4261H405.5V61.3545H428.138Z" fill="#BFBFBF"/>
<path d="M446.248 67.3376H445.969L445.258 65.2617H446.978L446.248 67.3376Z" fill="#BFBFBF"/>
<path d="M462.248 65.2617H452.288V67.3422H462.248V65.2617Z" fill="#BFBFBF"/>
<path d="M405.498 67.337V65.2637C405.498 65.2637 425.936 65.2658 425.996 65.2658C424.623 66.5747 422.74 67.3123 420.713 67.3416L405.501 67.337" fill="#BFBFBF"/>
<path d="M439.938 65.2617H429.968V67.3422H439.938V65.2617Z" fill="#BFBFBF"/>
<path d="M403.652 65.2696C403.652 65.2696 403.645 67.3369 403.652 67.3369C403.658 67.3369 389.508 67.3454 389.505 67.3408C389.501 67.3369 389.508 65.2637 389.505 65.2637C389.501 65.2637 403.645 65.276 403.652 65.2696Z" fill="#BFBFBF"/>
<path d="M136.782 37.6578C136.782 37.6578 137.224 36.9981 137.595 36.4946C138.271 35.5808 139.492 34.3139 140.411 33.5295C140.694 33.2905 141.025 33.0178 141.025 33.0178C141.025 33.0178 140.505 33.0714 140.213 33.132C139.515 33.2684 138.49 33.9467 137.978 34.3838C137.134 35.1018 136.207 36.2732 136.626 37.3117C136.688 37.4609 136.782 37.6578 136.782 37.6578ZM141.473 38.9085C142.806 38.8187 144.057 38.4341 145.218 37.793C146.359 37.1578 148.035 35.9177 147.864 34.4584C147.809 33.9887 147.5 33.6309 147.109 33.4642C146.599 33.2427 146.335 33.2824 145.683 33.4724C145.212 33.6111 145.001 33.695 144.556 33.9491C143.246 34.7067 141.394 36.3279 140.386 37.6229C140.153 37.9259 139.917 38.2674 139.735 38.5005C139.615 38.6427 139.528 38.7768 139.537 38.8129C139.577 38.9609 140.952 38.9458 141.473 38.9085ZM138.078 41.3957C137.942 41.5379 137.797 41.8911 137.644 42.1452C137.564 42.2804 137.414 42.4552 137.317 42.5228C136.969 42.7769 136.677 42.7886 136.34 42.4948C135.871 42.0834 135.6 41.4412 135.58 40.8176C135.57 40.5449 135.615 40.2465 135.566 40.0134C135.48 39.6276 135.09 39.2302 134.882 38.8595C134.637 38.4201 134.438 37.6613 134.413 37.1706C134.327 35.6403 135.137 34.2323 136.188 33.1192C137.246 31.9945 138.631 31.0609 140.138 30.4256C141.561 29.8254 143.648 29.4186 145.211 29.9594C145.718 30.1331 146.428 30.5655 146.785 31.0154C146.86 31.111 146.923 31.2147 147 31.2637C147.068 31.3068 147.25 31.3243 147.395 31.3511C147.896 31.4373 148.613 31.8126 148.907 32.0632C149.494 32.5714 149.818 33.0563 149.967 33.7591C150.267 35.1717 149.451 36.7242 148.521 37.6672C146.926 39.2943 145.353 40.4353 143.313 41.2326C142.42 41.5811 141.025 41.9062 140.008 41.8153C139.694 41.7897 139.367 41.7069 139.061 41.6848C138.906 41.6708 138.331 41.5274 138.272 41.4808C138.195 41.4272 138.098 41.3759 138.078 41.3957ZM139.899 44.531C139.961 44.5427 140.057 44.5707 140.14 44.5998C140.855 44.8714 141.148 45.5322 141.325 46.2549C141.733 47.9368 141.907 51.6549 141.974 53.1141C142.024 54.2039 142.051 55.2832 142.096 56.3625C142.135 57.2774 142.207 58.4943 142.018 59.3533C141.948 59.6621 141.742 60.0165 141.445 60.2018C141.105 60.4186 140.333 60.4349 139.909 60.3475C138.862 60.1319 138.522 59.4605 138.374 58.429C138.018 55.9674 138.189 51.1362 138.398 49.0976C138.466 48.4275 138.722 46.27 139.075 45.3667C139.194 45.059 139.453 44.4436 139.899 44.531ZM107.661 48.2247C107.661 48.2247 106.111 48.3342 105.047 48.4519C103.689 48.5965 101.142 49.0359 99.6719 49.5615C99.2288 49.7154 98.332 50.0895 98.2549 50.5406C98.1754 51.0126 98.4653 51.3763 98.7915 51.7574C98.9786 51.9765 100.041 52.9952 100.338 53.2435C101.587 54.2808 104.118 55.8846 105.986 56.6632C106.623 56.9289 107.683 57.3054 107.683 57.3054C107.683 57.3054 107.604 54.2983 107.62 51.3355C107.626 49.7713 107.661 48.2247 107.661 48.2247ZM136.055 49.4228C136.145 50.2306 135.935 51.7586 135.9 51.9602C135.833 52.4241 135.481 53.4952 135.425 53.627C135.141 54.2762 134.862 54.8123 134.564 55.3438C134.056 56.2553 132.85 57.6994 132.131 58.3171C129.467 60.6144 125.341 61.9221 121.799 62.3534C119.397 62.6436 116.638 62.5981 114.092 62.1296C113.217 61.9688 111.915 61.6715 111.915 61.6715C111.915 61.6715 111.918 62.1902 111.875 62.5574C111.855 62.7205 111.728 63.1611 111.659 63.3033C111.471 63.6844 111.169 63.8814 110.728 63.9642C110.195 64.0656 109.629 64.0959 109.135 63.8884C108.328 63.5469 108.035 62.7905 107.896 61.9256C107.781 61.2286 107.661 60.0165 107.661 60.0165C107.661 60.0165 107.057 59.7321 106.551 59.4803C105.001 58.718 103.528 57.7984 102.242 56.8474C101.885 56.5839 100.352 55.303 100.013 54.9836C99.0651 54.0897 98.2116 53.1945 97.5615 52.0488C97.0564 51.1537 96.9115 50.3564 97.295 49.4088C97.8258 48.0871 99.7269 47.0894 101.028 46.5218C101.986 46.101 104.956 45.1348 106.19 44.9565C106.772 44.8737 107.676 44.714 107.731 44.6756C107.753 44.6593 107.771 44.6441 107.786 44.6243C107.814 44.5835 107.862 43.2734 107.853 42.7955C107.842 42.3247 108.202 39.2336 108.318 38.5798C108.381 38.2243 108.649 36.8629 108.925 36.5063C109.103 36.265 109.421 36.2825 109.679 36.4433C111.095 37.3187 111.524 40.3631 111.629 41.9121C111.692 42.855 111.724 44.2746 111.724 44.2746C111.724 44.2746 113.348 44.228 114.348 44.2536C115.317 44.2781 116.387 44.432 117.396 44.5905C118.685 44.7945 121.2 45.3411 122.642 46.0719C123.83 46.671 124.941 47.6838 125.3 48.7538C125.635 49.7352 125.584 50.4112 125.075 51.297C124.503 52.2982 123.42 53.0395 122.32 53.1001C121.992 53.1223 120.762 52.9579 120.384 52.6665C120.235 52.5488 120.243 52.339 120.35 52.1968C120.391 52.1432 120.965 51.8437 121.306 51.663C121.475 51.5709 121.618 51.4719 121.749 51.3518C122.032 51.1012 122.285 50.8296 122.257 50.5115C122.218 50.0965 121.779 49.8401 121.358 49.6758C119.389 48.8972 115.458 48.248 113.557 48.1361C112.814 48.0918 111.758 48.0545 111.758 48.0545L111.981 58.5117C111.981 58.5117 112.856 58.6784 113.544 58.7915C113.941 58.8498 115.616 59.0001 116.061 59.0106C119.45 59.1003 123.235 58.7996 126.346 57.3311C127.712 56.6912 128.964 55.8939 129.912 54.8158C131.164 53.3845 131.819 51.4299 131.645 49.389C131.454 47.1547 129.878 44.5089 128.622 42.8958C125.298 38.6334 119.602 35.1309 114.593 33.0772C109.477 30.9816 104.42 29.7729 98.9891 29.5713C97.5908 29.5212 94.5368 29.5923 92.9958 30.0177C92.7725 30.0795 92.5527 30.1541 92.3469 30.1972C92.1844 30.2368 91.9318 30.344 91.8617 30.3988C91.8243 30.4326 91.7833 30.4734 91.7833 30.4734C91.7833 30.4734 91.8792 30.5247 91.9693 30.5655C92.1329 30.6378 92.8216 30.6774 93.177 30.7415C93.4939 30.8021 93.8283 30.9711 93.9569 31.2054C94.082 31.4257 94.0995 31.5982 93.9487 31.7823C93.5991 32.2089 92.2826 32.1343 91.7039 32.0446C91.1017 31.9467 90.3523 31.7648 90.2143 31.2415C90.0564 30.6261 90.3464 30.0224 90.6644 29.4641C91.3016 28.3475 92.2124 27.7659 93.55 27.4045C95.4453 26.8859 97.8398 26.5211 99.631 26.4523C103.686 26.3019 107.522 27.0059 111.448 28.1959C113.696 28.872 116.642 30.0095 118.794 31.0445C120.338 31.7858 122.775 33.1542 124.143 34.0481C124.575 34.3314 127.1 36.1811 127.492 36.5063C128.31 37.173 129.382 38.131 130.155 38.898C131.655 40.3794 133.52 42.6499 134.429 44.4495C134.645 44.883 134.815 45.3073 135.094 45.8073C135.191 45.9775 135.606 47.0032 135.675 47.3004C135.743 47.5929 135.842 48.0242 135.857 48.0393C135.88 48.2025 136.069 49.0802 136.055 49.4228ZM153.522 50.1828C153.598 50.1898 153.616 50.1933 153.685 50.2038C154.927 50.3716 156.143 50.5942 157.074 51.0091C157.937 51.3914 158.445 51.8705 158.907 52.7295C159.61 54.0302 159.658 55.8496 159.022 57.2296C158.546 58.2542 157.504 59.1143 156.555 59.5712C155.564 60.0491 154.595 60.2752 153.477 60.4023C151.529 60.6144 149.419 60.2146 147.663 59.3673C146.625 58.8614 145.356 57.9919 144.715 56.8695C144.244 56.0455 144.259 54.9767 144.832 54.1957C145.743 52.9521 147.697 52.6782 149.17 52.7307C150.292 52.7726 152.312 53.1199 153.379 53.4952C153.676 53.6025 154.765 54.0256 154.954 54.2167C155.087 54.3543 155.176 54.5477 155.115 54.7319C154.87 55.4743 153.062 55.866 152.541 55.9429C151.14 56.1562 150.415 55.6294 148.825 55.0035C148.43 54.8496 147.904 54.6794 147.5 54.6421C146.779 54.5734 145.908 54.7715 145.771 55.5594C145.7 55.965 146.177 56.3427 146.54 56.5C147.393 56.8683 148.086 56.9977 148.928 57.0129C151.405 57.0502 154.192 56.6445 156.223 55.2109C156.503 55.0151 156.773 54.7249 156.778 54.3601C156.778 54.3123 156.711 53.9207 156.584 53.8799C156.565 53.8717 156.545 53.881 156.531 53.8775C156.484 53.8636 156.406 53.7365 156.341 53.6526C156.194 53.4743 155.606 53.2225 155.491 53.1736C154.124 52.6059 151.6 52.3297 150.297 52.2225C148.933 52.1059 146.786 51.9253 146.269 51.8507C145.738 51.7761 145.162 51.6712 144.7 51.4649C144.241 51.2562 143.789 50.7923 143.654 50.2783C143.416 49.3494 143.721 48.2107 144.238 47.4671C145.595 45.5229 148.768 44.7875 151.141 44.4949C153.438 44.2094 157.15 44.2129 159.405 45.4075C159.755 45.5929 159.934 45.7654 159.859 46.1372C159.713 46.8342 159.184 47.2829 158.549 47.4799C157.883 47.692 156.501 47.7736 155.894 47.8109C153.174 47.9636 149.889 47.8832 147.3 48.5883C147.097 48.6466 146.747 48.7375 146.632 48.8657C146.226 49.3039 147.385 49.4287 147.634 49.4823C147.706 49.4974 147.722 49.4998 147.798 49.5068L153.522 50.1828ZM162.004 60.3218C160.906 59.9197 160.658 58.1528 160.607 57.2576C160.433 54.3484 161.206 50.2982 162.185 47.5708C162.466 46.7945 162.868 45.5253 163.74 45.5975C164.34 45.65 164.768 46.1115 165.105 46.5847C165.965 47.7946 167.096 49.4333 167.846 50.5744C168.684 51.853 169.489 53.1421 170.281 54.3088C170.378 54.4498 170.469 54.5874 170.576 54.6748C170.719 54.789 170.848 54.7948 170.907 54.6888C170.933 54.6468 170.882 53.1771 170.845 52.8822C170.783 52.4136 170.755 52.0325 170.702 51.628C170.556 50.452 170.18 48.7969 169.885 47.6768C169.56 46.4251 169.163 45.1196 168.866 43.9075C168.772 43.5135 168.683 43.1161 168.686 42.7419C168.689 42.2 169.038 41.9004 169.604 42.1021C170.721 42.4948 172.201 44.911 172.632 45.749C172.78 46.0323 173.359 47.474 173.49 47.8773C173.955 49.262 174.235 50.5744 174.363 52.0826C174.485 53.5489 174.383 55.6841 173.761 57.1294C173.533 57.6609 173.064 58.3765 172.674 58.7367C172.063 59.302 170.845 59.7426 170.005 59.2659C169.086 58.746 167.578 56.1399 167.319 55.6946C166.444 54.1701 164.937 51.1898 164.703 50.8553C164.651 50.7819 164.586 50.7108 164.469 50.6758C164.38 50.6502 164.345 50.8331 164.322 50.9532C164.172 51.8215 164.069 55.8811 164.067 55.9942C164.042 56.6772 164.008 58.3532 163.811 59.1784C163.681 59.7169 163.55 60.1598 163.053 60.3859C162.702 60.5456 162.433 60.4792 162.004 60.3218ZM177.138 60.0619C177.019 59.971 176.827 59.7764 176.688 59.619C176.666 59.598 176.272 59.0083 176.194 58.8264C176.125 58.6703 176.073 58.556 176.023 58.4255C175.664 57.5001 175.673 56.5898 175.872 55.5956C176.057 54.669 176.231 54.6282 176.708 53.3554C176.738 53.2866 176.753 53.226 176.763 53.1491C176.783 52.9742 176.5 51.8017 176.482 51.4252C176.463 50.8495 176.91 50.4427 177.66 50.3623C177.729 50.3553 177.78 50.3576 177.829 50.3424C178.127 50.2702 178.319 49.6991 178.483 49.241C178.711 48.5976 179.068 47.6162 179.068 47.6162C179.068 47.6162 178.119 47.3983 177.612 47.2071C177.045 46.9938 176.617 46.7188 176.361 46.2013C176.053 45.5952 176.256 45.2583 176.89 45.0625C177.123 44.9879 178.963 44.6359 179.545 44.5544C180.269 44.4483 180.951 44.3574 181.641 44.2735C182.241 44.2 184.992 43.883 185.869 43.9063C187.204 43.9448 188.07 44.4926 188.85 45.6197C189.27 46.2211 189.556 46.9356 188.924 47.3225C187.951 47.9123 184.799 47.9566 184.221 47.9624C183.302 47.9717 182.03 47.9566 182.03 47.9566L181.388 50.0942C181.388 50.0942 183.646 50.0709 184.915 50.065C185.222 50.065 185.531 50.0825 185.704 50.1187C186.352 50.262 186.576 50.7585 186.602 51.473C186.638 52.3099 186.479 52.6957 185.81 52.8076C185.464 52.8624 181.586 52.8845 181.06 52.9463C180.731 52.9824 180.385 53.0337 180.385 53.0337C180.385 53.0337 180.105 53.7633 179.861 54.4988C179.616 55.2669 179.405 56.0478 179.405 56.0478C179.405 56.0478 179.602 56.0559 179.766 56.0559C180.038 56.0583 180.315 56.0186 180.533 55.9814C181.716 55.7657 183.474 55.5058 184.918 55.2797C185.695 55.1561 186.085 55.1014 186.493 55.6142C186.846 56.0688 187.029 56.4487 187.054 56.9965C187.077 57.5129 186.681 57.8544 186.2 58.2215C184.674 59.3847 182.065 60.6447 180.122 60.8603C179.224 60.9606 179.006 60.8615 178.22 60.6575C178.07 60.6191 177.527 60.365 177.531 60.3382C177.534 60.3347 177.239 60.14 177.138 60.0619ZM201.66 49.3168C200.66 50.1525 199.368 51.853 198.752 52.7376C197.929 53.909 197.154 55.2506 196.413 56.2891C196.254 56.5233 195.775 57.3579 195.792 57.387C195.824 57.4464 196.306 57.4278 196.801 57.345C197.854 57.169 199.286 56.4313 200.05 55.8228C201.216 54.8916 202.027 53.6118 202.411 52.1152C202.58 51.4346 202.667 50.0103 202.184 49.375C202.088 49.2538 201.847 49.1594 201.66 49.3168ZM193.72 61.5398C193.72 61.5398 193.403 62.4664 193.17 63.1926C192.769 64.4467 191.887 67.8244 191.683 68.8746C191.376 70.4318 190.501 74.5135 190.456 74.6009C190.395 74.7198 190.354 74.7571 190.205 74.8515C189.845 75.0625 189.7 74.9925 189.264 74.7606C188.697 74.4634 188.2 74.1603 187.775 73.5997C186.92 72.4936 187.124 70.4131 187.29 69.1928C187.876 64.9234 188.47 63.0446 190.099 58.7938C190.126 58.7204 190.126 58.7041 190.093 58.64C189.584 57.5618 189.311 56.2576 189.311 55.2051C189.316 51.874 191.237 48.5767 193.39 45.9297C193.553 45.7281 194.61 44.4658 195.09 44.4903C195.571 44.5136 195.649 45.073 195.577 45.5392C195.335 47.0778 194.248 48.6466 193.506 49.9438C192.671 51.3938 192.49 51.9917 192.081 53.3216C192.015 53.529 191.852 54.5011 191.859 54.6258C191.875 54.9836 191.953 55.4335 191.953 55.4335C191.953 55.4335 193.312 53.5372 194.209 52.367C194.699 51.7248 195.049 51.2994 195.459 50.8413C195.872 50.3762 197.465 48.7258 197.923 48.2911C198.887 47.3738 199.313 46.9927 200.355 46.4542C201.181 46.0288 201.923 45.9227 202.727 46.453C204.004 47.2887 204.561 49.0569 204.705 50.4905C204.872 52.2038 204.521 54.1305 203.763 55.5979C202.864 57.3485 201.637 58.6085 199.967 59.7111C198.26 60.8393 196.257 61.6051 194.293 61.5608C194.029 61.5562 193.72 61.5398 193.72 61.5398Z" fill="#BFBFBF"/>
<path d="M285.059 53.5474C285.059 58.9677 280.806 62.961 275.586 62.961C270.367 62.961 266.113 58.9677 266.113 53.5474C266.113 48.0898 270.367 44.1338 275.586 44.1338C280.806 44.1338 285.059 48.0898 285.059 53.5474ZM280.912 53.5474C280.912 50.161 278.447 47.8436 275.586 47.8436C272.725 47.8436 270.26 50.161 270.26 53.5474C270.26 56.9003 272.725 59.2516 275.586 59.2516C278.447 59.2516 280.912 56.8965 280.912 53.5474Z" fill="#BFBFBF"/>
<path d="M305.495 53.5474C305.495 58.9677 301.242 62.961 296.022 62.961C290.803 62.961 286.549 58.9677 286.549 53.5474C286.549 48.0936 290.803 44.1338 296.022 44.1338C301.242 44.1338 305.495 48.0898 305.495 53.5474ZM301.348 53.5474C301.348 50.161 298.884 47.8436 296.022 47.8436C293.161 47.8436 290.696 50.161 290.696 53.5474C290.696 56.9003 293.161 59.2516 296.022 59.2516C298.884 59.2516 301.348 56.8965 301.348 53.5474Z" fill="#BFBFBF"/>
<path d="M325.08 44.7025V61.6029C325.08 68.5549 320.967 71.3942 316.105 71.3942C311.528 71.3942 308.773 68.3427 307.735 65.8471L311.345 64.3489C311.988 65.881 313.563 67.6891 316.101 67.6891C319.213 67.6891 321.141 65.7749 321.141 62.1716V60.8181H320.997C320.069 61.9594 318.28 62.9568 316.024 62.9568C311.302 62.9568 306.977 58.8569 306.977 53.5814C306.977 48.2676 311.302 44.1338 316.024 44.1338C318.276 44.1338 320.064 45.1312 320.997 46.2389H321.141V44.7068H325.08V44.7025ZM321.435 53.5814C321.435 50.2666 319.218 47.8432 316.394 47.8432C313.533 47.8432 311.136 50.2666 311.136 53.5814C311.136 56.8621 313.533 59.2516 316.394 59.2516C319.218 59.2516 321.435 56.8625 321.435 53.5814Z" fill="#BFBFBF"/>
<path d="M331.572 34.7969V62.3841H327.528V34.7969H331.572V34.7969Z" fill="#BFBFBF"/>
<path d="M347.334 56.6464L350.553 58.7851C349.514 60.3172 347.011 62.9571 342.685 62.9571C337.32 62.9571 333.314 58.8233 333.314 53.5435C333.314 47.9458 337.355 44.1299 342.221 44.1299C347.121 44.1299 349.519 48.0176 350.302 50.118L350.732 51.188L338.108 56.3998C339.075 58.2881 340.578 59.2519 342.685 59.2519C344.797 59.2519 346.261 58.2164 347.334 56.6464ZM337.427 53.2591L345.865 49.7662C345.401 48.5905 344.004 47.7718 342.361 47.7718C340.254 47.7718 337.32 49.6261 337.427 53.2591Z" fill="#BFBFBF"/>
<path d="M250.803 51.0989V47.1051H264.304C264.436 47.8016 264.504 48.6246 264.504 49.5158C264.504 52.5127 263.682 56.2174 261.034 58.8573C258.458 61.5316 255.167 62.9572 250.808 62.9572C242.727 62.9572 235.932 56.3961 235.932 48.3406C235.932 40.2852 242.727 33.7236 250.808 33.7236C255.278 33.7236 258.463 35.4722 260.855 37.7514L258.028 40.5695C256.313 38.9652 253.988 37.7174 250.803 37.7174C244.902 37.7174 240.287 42.4582 240.287 48.3406C240.287 54.2227 244.902 58.9634 250.803 58.9634C254.631 58.9634 256.811 57.4317 258.207 56.0392C259.34 54.9106 260.085 53.2974 260.378 51.0951L250.803 51.0989Z" fill="#BFBFBF"/>
</svg>
