<svg width="154" height="154" viewBox="0 0 154 154" fill="none" xmlns="http://www.w3.org/2000/svg">
<path fill-rule="evenodd" clip-rule="evenodd" d="M113.225 9.03599C102.428 3.2692 90.0957 1.01578e-05 77 0V44.0021H77.0001C82.6703 44.0021 88.0096 45.419 92.6832 47.9181L113.225 9.03599Z" fill="#AF8569"/>
<path fill-rule="evenodd" clip-rule="evenodd" d="M140.353 33.223C133.385 23.1585 124.081 14.8347 113.225 9.03613L92.6831 47.9182C97.3389 50.4077 101.334 53.9711 104.338 58.2775L140.353 33.223Z" fill="#F40D0D"/>
<path fill-rule="evenodd" clip-rule="evenodd" d="M153.496 68.14C152.021 55.2688 147.373 43.3623 140.353 33.2227L104.338 58.2772C107.366 62.6182 109.386 67.7143 110.06 73.2263L153.496 68.14Z" fill="#FD5C0A"/>
<path fill-rule="evenodd" clip-rule="evenodd" d="M148.991 104.376C152.228 95.87 154 86.6416 154 76.9993C154 74.0031 153.829 71.0467 153.496 68.1396L110.06 73.2259C109.911 72.0113 109.698 70.817 109.422 69.6464L109.422 69.6467C110.001 72.1066 110.307 74.6717 110.307 77.3084C110.307 81.3727 109.579 85.267 108.247 88.8679L148.991 104.376Z" fill="#FD930A"/>
<path fill-rule="evenodd" clip-rule="evenodd" d="M128.103 134.598C137.305 126.428 144.536 116.086 148.991 104.377L108.247 88.8682C106.345 94.0056 103.213 98.5461 99.2085 102.132L128.103 134.598Z" fill="#FDDD0A"/>
<path fill-rule="evenodd" clip-rule="evenodd" d="M95.2931 151.814C107.672 148.798 118.878 142.79 128.103 134.599L99.2086 102.132C101.345 100.219 103.234 98.0342 104.819 95.6319L104.819 95.6318C100.32 102.448 93.3837 107.514 85.251 109.586L95.2931 151.814Z" fill="#FDE2D3"/>
<path fill-rule="evenodd" clip-rule="evenodd" d="M59.0356 151.893C64.7993 153.27 70.8145 154 77.0002 154C95.9381 154 113.279 147.163 126.69 135.823L126.69 135.823C117.743 143.388 107.046 148.95 95.2933 151.813L85.2512 109.586C82.6127 110.258 79.8482 110.616 77.0003 110.616C74.4295 110.616 71.9267 110.325 69.5231 109.773L59.0356 151.893Z" fill="#83C341"/>
<path fill-rule="evenodd" clip-rule="evenodd" d="M59.0356 151.893C64.7992 153.27 70.8145 154 77.0001 154C95.9381 154 113.279 147.163 126.69 135.823L126.69 135.823C117.743 143.388 107.046 148.95 95.2933 151.813L85.2512 109.586C82.6126 110.258 79.8482 110.616 77.0003 110.616C74.4295 110.616 71.9267 110.325 69.5231 109.773L59.0356 151.893Z" fill="#FEF2E8"/>
<path fill-rule="evenodd" clip-rule="evenodd" d="M25.8306 134.54C35.1497 142.833 46.4969 148.897 59.0351 151.893L69.5225 109.774C70.7533 110.056 72.01 110.27 73.2886 110.412V110.412C66.2648 109.633 59.8997 106.67 54.8877 102.218L25.8306 134.54Z" fill="#83C341"/>
<path fill-rule="evenodd" clip-rule="evenodd" d="M5.10498 104.627C9.55726 116.206 16.7262 126.437 25.8312 134.54L54.888 102.218C55.9047 103.121 56.977 103.963 58.0992 104.737L58.0993 104.737C52.6273 100.959 48.3412 95.5857 45.913 89.2891L5.10498 104.627Z" fill="#1BA15B"/>
<path fill-rule="evenodd" clip-rule="evenodd" d="M0 76.9998C0 73.8015 0.194998 70.6487 0.573754 67.5527L43.9741 72.9637C43.7888 74.3859 43.6932 75.8362 43.6932 77.3089C43.6932 81.5322 44.4792 85.5718 45.913 89.2896L45.9129 89.2896L5.10486 104.628C1.80732 96.0519 0 86.7369 0 76.9998Z" fill="#73C2E4"/>
<path fill-rule="evenodd" clip-rule="evenodd" d="M14.0197 33.0459C6.69092 43.5692 1.92189 56.0083 0.614746 69.4612C0.676792 68.8226 0.746642 68.1864 0.824188 67.5525L44.2245 72.9634C44.929 67.5566 46.9301 62.5573 49.9056 58.2876L14.0197 33.0459Z" fill="#2E48B6"/>
<path fill-rule="evenodd" clip-rule="evenodd" d="M41.3422 8.73633C23.2578 18.202 9.40048 34.6433 3.34277 54.4877L3.34293 54.4877C5.71826 46.7064 9.29282 39.4483 13.8512 32.9289L49.7372 58.1706C52.7863 53.8353 56.8432 50.2602 61.5675 47.7857L41.3422 8.73633Z" fill="#6556A3"/>
<path fill-rule="evenodd" clip-rule="evenodd" d="M54.0181 53.2013L54.0179 53.2012C56.2595 51.0636 58.7989 49.2354 61.5675 47.7853L41.3423 8.73615C52.0031 3.15601 64.133 0 77 0L77 44.0021C68.0889 44.0022 59.9952 47.5017 54.0181 53.2013Z" fill="#323232"/>
</svg>
