<svg width="154" height="154" viewBox="0 0 154 154" fill="none" xmlns="http://www.w3.org/2000/svg">
<path fill-rule="evenodd" clip-rule="evenodd" d="M77.1543 0C96.1114 0.0371921 113.461 6.92495 126.858 18.3195L98.8435 51.5364C93.014 46.536 85.4369 43.5149 77.1543 43.5149V0Z" fill="#B8562E"/>
<path fill-rule="evenodd" clip-rule="evenodd" d="M83.0181 0.231503C99.6797 1.51958 114.855 8.11073 126.858 18.3194L98.8435 51.5364C104.677 56.5404 108.761 63.5265 110.051 71.4507L152.904 63.9807C147.047 29.5863 118.38 2.9652 83.0181 0.231445V0.231503Z" fill="#86613F"/>
<path fill-rule="evenodd" clip-rule="evenodd" d="M143.558 115.744C150.196 104.363 154 91.126 154 77.0004C154 72.5631 153.625 68.2134 152.904 63.9814L110.051 71.4514C110.337 73.2074 110.485 75.0094 110.485 76.8462C110.485 83.1176 108.753 88.9844 105.741 93.9945L143.558 115.744Z" fill="#BD7930"/>
<path fill-rule="evenodd" clip-rule="evenodd" d="M103.254 149.408C120.3 143.226 134.543 131.197 143.557 115.743L105.741 93.9941C101.79 100.566 95.6369 105.664 88.3022 108.267L103.254 149.408Z" fill="#C29652"/>
<path fill-rule="evenodd" clip-rule="evenodd" d="M141.749 118.688C132.695 132.723 119.201 143.624 103.254 149.408L88.3023 108.266C84.8166 109.503 81.064 110.176 77.1543 110.176C73.1676 110.176 69.3443 109.476 65.8007 108.192L50.7402 149.406C58.9352 152.379 67.7783 154 76.9999 154C104.164 154 128.043 139.934 141.75 118.688L141.749 118.688Z" fill="#DFCE8E"/>
<path fill-rule="evenodd" clip-rule="evenodd" d="M10.4419 115.742C19.4557 131.194 33.6963 143.224 50.7401 149.406L65.8006 108.193L65.8007 108.193C58.504 105.549 52.3931 100.431 48.4823 93.8516L10.4419 115.742Z" fill="#BCB690"/>
<path fill-rule="evenodd" clip-rule="evenodd" d="M10.442 115.742C18.2537 129.134 29.9912 139.954 44.0767 146.626L44.0767 146.627C18.0209 134.284 0 107.747 0 77.0001C0 72.5748 0.373305 68.2367 1.09014 64.0156L44.2363 71.5862C43.9647 73.2995 43.8237 75.0562 43.8237 76.8458C43.8237 83.0578 45.5231 88.8729 48.4824 93.8516L10.442 115.742Z" fill="#6E6F4C"/>
<path fill-rule="evenodd" clip-rule="evenodd" d="M81.7835 0.146165C80.2014 0.0491966 78.6065 0 77 0C40.913 0 10.6242 24.8248 2.2793 58.3286H2.27937C6.25343 42.3733 15.2042 28.3862 27.3878 18.1113L55.4324 51.5647C61.2663 46.5475 68.8562 43.5151 77.1543 43.5151L77.1543 0.000206468C78.7086 0.00325588 80.2521 0.0523584 81.7835 0.146222V0.146165Z" fill="#E3DDD5"/>
<path fill-rule="evenodd" clip-rule="evenodd" d="M1.09033 64.0156C4.20036 45.7021 13.7767 29.5902 27.3879 18.1113L55.4325 51.5648C49.5832 56.5954 45.4991 63.6212 44.2365 71.5862L1.09033 64.0156Z" fill="#F8E3CF"/>
</svg>
