<svg width="154" height="155" viewBox="0 0 154 155" fill="none" xmlns="http://www.w3.org/2000/svg">
<path fill-rule="evenodd" clip-rule="evenodd" d="M153.999 77.6557C154 77.5523 154 77.4487 154 77.3451C154 60.3127 148.519 44.5662 139.232 31.7881L103.884 57.5909C107.922 63.1267 110.307 69.9562 110.307 77.3451C110.307 77.4488 110.306 77.5523 110.305 77.6557H153.999Z" fill="#F0DA63"/>
<path fill-rule="evenodd" clip-rule="evenodd" d="M109.844 71.7534H109.844C108.967 66.5199 106.881 61.6989 103.884 57.5903L139.232 31.7876C129.726 18.7081 116.233 8.73863 100.548 3.68359L87.1455 45.469C98.8643 49.2292 107.763 59.3292 109.844 71.7534Z" fill="#E59945"/>
<path fill-rule="evenodd" clip-rule="evenodd" d="M66.5562 45.5663C69.8411 44.4777 73.3521 43.8886 77 43.8886C80.5378 43.8886 83.9467 44.4427 87.1455 45.4691L100.548 3.6837C93.1257 1.29166 85.2131 0 77 0C68.6737 0 60.6561 1.32747 53.1455 3.78322L66.5562 45.5663Z" fill="#D47A63"/>
<path fill-rule="evenodd" clip-rule="evenodd" d="M49.9927 57.7606C54.0573 52.115 59.8332 47.7944 66.5562 45.5663L53.1455 3.78323C53.4045 3.69855 53.6641 3.6152 53.9243 3.5332C37.9787 8.55799 24.2667 18.6524 14.6602 31.9362L49.9927 57.7606Z" fill="#24232A"/>
<path fill-rule="evenodd" clip-rule="evenodd" d="M43.6944 77.6556C43.6935 77.5522 43.693 77.4487 43.693 77.345C43.693 70.0316 46.0292 63.2663 49.9928 57.7609L14.6602 31.9365C5.4386 44.6881 0 60.3786 0 77.345C0 77.4486 0.000202751 77.5521 0.000607876 77.6556H43.6944Z" fill="#535074"/>
<path fill-rule="evenodd" clip-rule="evenodd" d="M50.119 97.1031C46.1354 91.6442 43.7601 84.9268 43.6943 77.6553H0.000488281C0.0667899 94.5939 5.55382 110.248 14.8095 122.959L50.119 97.1031Z" fill="#DFD3D6"/>
<path fill-rule="evenodd" clip-rule="evenodd" d="M43.9921 82.7381L43.9919 82.7381C44.3155 84.7035 44.8097 86.6112 45.4588 88.4455C44.8098 86.6112 44.3157 84.7035 43.9921 82.7381ZM53.0931 150.83C31.4804 143.794 14.0624 127.424 5.53824 106.466C7.88238 112.229 10.899 117.645 14.4904 122.615L49.9114 96.9163C54.0131 102.573 59.8382 106.89 66.6139 109.087L53.0931 150.83Z" fill="#778FA9"/>
<path fill-rule="evenodd" clip-rule="evenodd" d="M87.2065 109.052C83.9188 110.13 80.4065 110.709 76.7589 110.698C73.2189 110.687 69.8094 110.123 66.6117 109.086L53.0929 150.826C44.2559 147.949 36.1202 143.511 29.0069 137.838L29.0045 137.84C42.0879 148.276 58.6309 154.531 76.6344 154.584C84.9597 154.609 92.9801 153.305 100.497 150.873L87.2065 109.052Z" fill="#3B6A8B"/>
<path fill-rule="evenodd" clip-rule="evenodd" d="M76.6347 154.585C74.6582 154.579 72.6994 154.498 70.7608 154.346L70.7608 154.342C72.7003 154.495 74.6601 154.576 76.6375 154.582C84.9632 154.607 92.9839 153.304 100.501 150.871L87.2101 109.051C93.9388 106.843 99.7264 102.54 103.807 96.9074L139.067 122.836C125.016 142.145 102.27 154.66 76.6347 154.585Z" fill="#546834"/>
<path fill-rule="evenodd" clip-rule="evenodd" d="M103.809 96.9058C102.173 99.1647 100.262 101.21 98.1264 102.992L98.1259 102.991C105.455 96.8756 110.133 87.6617 110.162 77.3428C110.162 77.2381 110.162 77.1334 110.161 77.0289L153.857 77.1563C153.857 77.2614 153.857 77.3667 153.856 77.4719C153.808 94.4369 148.326 110.11 139.068 122.833L103.809 96.9058Z" fill="#92B266"/>
</svg>
