<svg width="499" height="499" viewBox="0 0 499 499" fill="none" xmlns="http://www.w3.org/2000/svg">
<path fill-rule="evenodd" clip-rule="evenodd" d="M444.831 94.2551C399.121 36.8187 328.61 0 249.5 0C249.166 0 248.832 0.000656916 248.498 0.00196953V142.583C248.832 142.58 249.166 142.579 249.5 142.579C283.427 142.579 313.698 158.234 333.482 182.714L444.831 94.2551Z" fill="#CB6442"/>
<path fill-rule="evenodd" clip-rule="evenodd" d="M499 249.5C499 268.639 496.845 287.275 492.765 305.178L354.945 273.606C356.568 266.163 357.424 258.432 357.424 250.502C357.424 224.824 348.456 201.241 333.482 182.714L444.831 94.2551C478.739 136.862 499 190.815 499 249.5Z" fill="#DEB875"/>
<path fill-rule="evenodd" clip-rule="evenodd" d="M485.974 169.725C494.421 194.773 499 221.602 499 249.5C499 268.639 496.845 287.275 492.764 305.179L354.945 273.607C347.785 306.432 325.688 333.675 296.134 347.858L357.223 474.611C441.088 434.406 499 348.716 499 249.5C499 221.602 494.421 194.773 485.974 169.724V169.725Z" fill="#8E9969"/>
<path fill-rule="evenodd" clip-rule="evenodd" d="M249.121 499C210.075 499 173.124 490.031 140.216 474.04L201.15 347.204C215.601 354.387 231.889 358.425 249.122 358.425C265.824 358.425 281.64 354.631 295.755 347.858L356.844 474.611C324.234 490.244 287.7 499 249.121 499Z" fill="#7BB2C9"/>
<path fill-rule="evenodd" clip-rule="evenodd" d="M248.498 142.583C214.929 142.889 185.022 158.52 165.433 182.818L54.1768 94.2453C99.694 37.0571 169.799 0.311376 248.498 0.00195312V142.583Z" fill="#E5CABB"/>
<path fill-rule="evenodd" clip-rule="evenodd" d="M144.215 274.324L6.39105 305.856C2.20975 287.745 0 268.881 0 249.5C0 190.811 20.264 136.854 54.1771 94.2454L165.434 182.818C150.511 201.33 141.577 224.873 141.577 250.502C141.577 258.687 142.488 266.66 144.215 274.324Z" fill="#AE8A95"/>
<path fill-rule="evenodd" clip-rule="evenodd" d="M140.215 474.04C72.5008 441.137 21.904 378.505 5.39551 303.115C5.59596 304.03 5.80146 304.944 6.01192 305.856L143.836 274.323C151.047 306.332 172.481 332.955 201.15 347.204L140.215 474.04Z" fill="#27527B"/>
</svg>
